<svg xmlns="http://www.w3.org/2000/svg" viewBox="0 0 312 109.25"><defs><style>.cls-1,.cls-2{fill:#fff;}.cls-2,.cls-3{fill-rule:evenodd;}.cls-3,.cls-5{fill:#ff704d;}.cls-4{fill:#5f9a4b;}</style></defs><g id="レイヤー_2" data-name="レイヤー 2"><g id="レイヤー_3" data-name="レイヤー 3"><path class="cls-1" d="M97.27,14.46c4.17,1.06,5.23,3.33,5.23,3.68s-.1.33-1,.79a6.68,6.68,0,0,1-1.46.61c-.27,0-.35-.22-.39-.36a9.47,9.47,0,0,0-1-2l-3.29.37v7.32a16.1,16.1,0,0,1-2.18.43c-.4,0-.4-.17-.4-.55,0-.63.1-3.44.1-4a6.89,6.89,0,0,0-2.58,1.65,15.71,15.71,0,0,1-2.53,2.44l-2-1.85a9.34,9.34,0,0,0,4.72-4.45l1.1.24a12.48,12.48,0,0,1-.53,1.81l0,0a12.12,12.12,0,0,1,1.81-.79l.06-2a26.68,26.68,0,0,0-4.43.88,2.13,2.13,0,0,0-1.34,1h-.65c-.09-.4-.47-2.23-.47-2.43,0-.41.42-.48.75-.48s3.84-.12,4.55-.16c.37-.32.57-.5,1.1-1A12.27,12.27,0,0,0,89,14.23a.89.89,0,0,1-.84-.89c0-.39.29-.61.63-.87,1.49-1.2,3-3.71,3-4.31a.43.43,0,0,0-.12-.37L92,7.48c.71.21,3.3,1,3.3,1.41,0,.63-3.3,3-4.27,3.7a10.2,10.2,0,0,1,2.38,2c.93-1,2.72-3.21,2.64-4.17l.2-.2c1.67.55,2.83,1,3,1.08a.38.38,0,0,1,.27.32c0,.51-3.22,2.69-6.43,4.88,1.16,0,4.29-.2,5-.22A6.85,6.85,0,0,0,96.68,15ZM96.74,19a9.11,9.11,0,0,1,5.23,3c.22.25.4.45.4.65s-.16.33-1.62,1.28c-.63.41-.71.41-.84.41s-.18,0-.42-.53c-.55-1.12-2-3.48-3.38-4.23Z"/><path class="cls-1" d="M115.81,18.63a58.92,58.92,0,0,1,8-1c1.16,0,2.6.37,2.6,2.18a7.92,7.92,0,0,1-1.75,4.7,3.5,3.5,0,0,1-2.48,1.08c-.42-1.17-1.1-1.39-2.33-1.82l.14-.52c.36.06,2,.42,2.3.42,1,0,1.28-3.48,1.28-3.8,0-1-.37-1.14-1-1.14a30.55,30.55,0,0,0-5,.47.58.58,0,0,1,0,.18c0,.31-.1.89-.43,3l1.93-.14c.06-.53.15-1.71.15-2s0-.42-.27-.48v-.33h1.65c.71,0,1.14,0,1.14.43a16.07,16.07,0,0,1-1.16,3.29c-.19,0-.59,0-.77,0a25.81,25.81,0,0,0-6.49,1.08v.14a14.06,14.06,0,0,1-1.79.39c-.19,0-.25-.1-.28-.29s-.23-2.47-.25-2.82c-.16-1.81-.14-1.85-.49-1.89v-.37c.27,0,2.12-.14,2.3-.14.57,0,.63.18.63.61,0,1,0,2-.06,3,1.06-.17,1.2-.18,1.83-.27,0-.34-.1-1.5-.14-2.54-.21,0-.88.06-1.06.06-.41,0-.47-.18-.49-.59,0-.85-.14-6.87-.2-7.65-.63.37-.76.45-1.14.7l-.53-.49c2.46-1.83,3.62-3.64,3.62-4.25,0-.14-.08-.22-.22-.37l.2-.3,2.75.61c.32.08.67.14.67.42s-.45.68-.78.9c-.55.39-1.2.79-2.78,1.73l.28,0a51.27,51.27,0,0,1,6.71-1.26c.63,0,1.87.16,1.87,1.4a33.24,33.24,0,0,1-.65,3.87,54.54,54.54,0,0,0-7.5.79l0,.81c1.77-.22,8.09-.95,10.29-1v.89c-2,.08-6,.57-7.08.73a12.41,12.41,0,0,0-3.23.75Zm.18-5.92c.73-.12,2.87-.43,4.27-.59v.73c-3.19.51-3.54.57-4.33,1.08,0,.12,0,.65,0,.77l5.06-.65c.14-1.67.19-2.11.19-2.46s-.07-.73-.57-.73a23.85,23.85,0,0,0-4.54.85Z"/><path class="cls-1" d="M138.6,9.13c.71.1,2.15.28,2.93.41a.55.55,0,0,1,.54.61c0,.24-.24,1.46-.28,1.72a9.19,9.19,0,0,0-.08,1.14,9.26,9.26,0,0,0,2.84-1.32l.07.27c-.43.36-.45.42-.72,1.34-.1.39-1.54.95-2.29,1.22,0,.08-.1,2-.13,2.32a14,14,0,0,1,5-1.28c.65,0,3.53,0,3.53,3.09,0,2.4-1.68,4.8-3.74,4.8-1.87,0-2.62-1.77-3.23-3.5l.45-.18a2.68,2.68,0,0,0,2.23,1.64c1.28,0,1.89-1.7,1.89-3a1.57,1.57,0,0,0-1.73-1.84,10.18,10.18,0,0,0-4.45,1.49c-.1,2.52-.14,3.27-.14,3.86s0,1.06-.22,1.35a2,2,0,0,1-1.12.57c-.1,0-.16-.07-.47-.57a2,2,0,0,0-2-.76,1.59,1.59,0,0,1-.69.17.88.88,0,0,1-.94-1c0-1.16,1.49-2.69,3.58-3.93,0-.4,0-2.19,0-2.56a18.12,18.12,0,0,1-2.5.51c-.37,0-.65,0-1.36-2.05l.26-.13a1.3,1.3,0,0,0,1.06.45,13.69,13.69,0,0,0,2.5-.41c0-.75-.06-3.25-.16-3.55s-.39-.39-.69-.45ZM138.05,21a.66.66,0,0,0,.38.55,5.51,5.51,0,0,0,.94.32c.16,0,.22-.2.22-.32V19.09A6.12,6.12,0,0,0,138.05,21Zm7.36-6.84c.59-1,1.71-2.87,1.71-3.78a.52.52,0,0,0-.18-.43l.18-.22c1.42.51,2,.73,2.6,1,.28.12.41.24.41.44,0,.59-2.91,2.65-4,3.4Z"/><path class="cls-1" d="M163.42,8.91c.38,0,2.24-.16,2.56-.16.63,0,.73.36.73.91a21.39,21.39,0,0,1-.2,2.5,8.27,8.27,0,0,0,2.28-.79l.2.53a2.74,2.74,0,0,0-1.18,1c-.16.23-.43.33-1.44.59a16.2,16.2,0,0,1-.78,3.05,1.42,1.42,0,0,1,.21.8c0,.59-.61,3.09-.61,3.6s0,1.38,1.95,1.38a5.54,5.54,0,0,0,4.35-2A7.6,7.6,0,0,0,173,16.74l.73.36c-.19,5.72-3.76,7.18-6.88,7.18-3.51,0-3.8-2.28-3.8-3.09,0-.34,0-.39-.32-.49-2-.6-2.34-.81-2.34-1.79,0-.57.48-2.89,3.6-2.89a10.37,10.37,0,0,0,.22-2,29.28,29.28,0,0,1-3.11.61.77.77,0,0,1-.8-.54c-.12-.29-.5-1.35-.66-1.77l.28-.21c.33.47.57.59,1.5.59s2.26-.14,2.85-.2c0-2.34,0-3-.81-3.19Zm-.49,8.4a1.52,1.52,0,0,0-1.46,1.3c0,.81,1.62,1,1.75,1s.16-.08.18-.24.22-1.51.26-1.79A1,1,0,0,0,162.93,17.31ZM172,15a20.35,20.35,0,0,0,.47-3.48c0-.61-.19-.81-.59-1L172,10c.37.06,2.26.3,2.68.38s.76.19.76.59c0,.55-.82,2.05-2.47,4.23Z"/><path class="cls-1" d="M191.59,25.81a43.47,43.47,0,0,0,.53-6.45,2.12,2.12,0,0,1-1.75.77,2.57,2.57,0,0,1-2.68-2.78,3.17,3.17,0,0,1,3.46-3.2,3.24,3.24,0,0,1,1.1.17c0-.31,0-1.39,0-1.55-1.39.21-5.76.81-6.86.81-.51,0-.71,0-1.6-2.76l.38-.22c.63.73,1.14,1,3.72,1,1.28,0,3-.08,4.32-.18,0-2.65-.19-3.07-1-3.23V7.79c.73-.08,2-.23,2.62-.23,1,0,1,.78,1,1.47s0,1.48-.06,2.09a35.25,35.25,0,0,0,4.72-.69c-.09.17-.39.84-.53,1a32.19,32.19,0,0,1-4.26.93,34.48,34.48,0,0,1-.3,3.52,2.51,2.51,0,0,1,.43,1.53c0,1.91-.74,6.08-2.5,8.13Zm-.81-10.66c-.87,0-1.44,1-1.44,2s.65,1.46,1.2,1.46c.26,0,1.18-.08,1.4-1.71C192,16.41,191.94,15.15,190.78,15.15Z"/><path class="cls-1" d="M208.36,11.59c.35.55.71.76,1.73.76,1.42,0,3.56-.37,4.48-1.51.49.49.55.55,1.22,1.14a.51.51,0,0,1,.16.37c0,.18-.18.26-.57.36a15,15,0,0,0-1.79.73,15.11,15.11,0,0,0-1.48,5.92c0,2,1,2.58,1.79,2.58,1.3,0,2.78-1.06,5.32-6.26a9.49,9.49,0,0,1-.83-2.34,20.22,20.22,0,0,1-.39-2.58c0-.29.06-.43.39-.61s1.48-.69,2.28-1l.22.49c-.29.25-.43.36-.43,1.28a12.87,12.87,0,0,0,3.72,8.54l-.68.83a11,11,0,0,1-3.57-3.35c-1.2,3.34-2.72,7.5-5.81,7.5a4.09,4.09,0,0,1-3.94-4.16c0-2.45,1.46-5.37,2-6.41a9.79,9.79,0,0,1-2.22.67.88.88,0,0,1-.81-.45,9.62,9.62,0,0,1-1.12-2.3Zm15.44,0c.1-.43.57-2.11.57-2.48a.16.16,0,0,0-.16-.18,7.32,7.32,0,0,0-1.16.73c0,.24-.09.86-.12,1.28l-1,.47a12.15,12.15,0,0,0-.43-2.32.48.48,0,0,0-.41-.22V8.56a17.19,17.19,0,0,1,1.77-.51c.37,0,.35.27.29.92a3.49,3.49,0,0,1,2.29-1.1c.63,0,.84.39.84.71,0,.71-1.55,2.95-1.59,3Z"/><path class="cls-1" d="M188,101.81l2.2,0c.06,0,2,0,2.7,0l.16,1.87-.54.06c-.13-.86-.27-1.33-1.33-1.33-.44,0-.55.06-.59.27a10,10,0,0,0,0,1.11v1.48c1.5,0,1.58-.08,1.6-.84h.52c0,.38,0,.77,0,1.16s0,.67,0,1.12h-.51a1,1,0,0,0-.22-.73c-.19-.15-.46-.15-1.4-.15v1.72c0,1,.09,1,.83,1.07v.46l-1.75,0-1.63,0v-.47c.34,0,.64,0,.72-.39a11.72,11.72,0,0,0,.06-1.37v-3.08c0-1.36,0-1.47-.78-1.48Z"/><path class="cls-1" d="M195.34,101.82l1.6,0,1.71,0v.49c-.43,0-.66,0-.72.45s-.06,1.61-.06,2a13.92,13.92,0,0,0,.09,2.36,1.59,1.59,0,0,0,.57,1.07,1.3,1.3,0,0,0,.86.27,1.35,1.35,0,0,0,.82-.24,1.69,1.69,0,0,0,.64-1.23,12.6,12.6,0,0,0,.05-1.87,16.91,16.91,0,0,0-.08-2.51c-.09-.29-.27-.3-.7-.33v-.48l1.24,0,1.16,0v.48c-.55,0-.73,0-.75.67s-.05,1.12-.07,3.19a3.05,3.05,0,0,1-.83,2.48,2.76,2.76,0,0,1-2,.6,3,3,0,0,1-1.94-.54c-.78-.59-.82-1.37-.83-2.81v-2.41c0-1,0-1.16-.76-1.18Z"/><path class="cls-1" d="M211.14,108.65a6.48,6.48,0,0,1-2.67.6,3.43,3.43,0,0,1-3.66-3.72,3.62,3.62,0,0,1,3.84-3.86,10,10,0,0,1,2.6.43c0,.89,0,1.14.1,2l-.56,0a1.91,1.91,0,0,0-3.36-1.17,4,4,0,0,0-.7,2.51c0,1.59.58,3.11,2.21,3.11s1.82-1.27,2-2.07l.56,0Z"/><path class="cls-1" d="M213.8,101.83q.75,0,1.5,0l1.77,0v.48c-.73,0-.73.14-.75,1.3v1.52h2.5V103.8c0-1.39,0-1.48-.76-1.48v-.49c.5,0,1,0,1.49,0l1.77,0v.48c-.41,0-.63,0-.71.38a14.74,14.74,0,0,0-.05,1.49v2.7c0,1.6,0,1.7.75,1.7v.5c-.55,0-1.09,0-1.64,0l-1.6,0v-.49c.73,0,.73-.2.74-1.42v-1.49h-2.49v1.47c0,1.3,0,1.44.75,1.43v.5l-1.45,0c-.61,0-1.21,0-1.82,0v-.49c.33,0,.55,0,.66-.26s.09-.22.1-1.74v-2.46c0-1.75,0-1.8-.76-1.8Z"/><path class="cls-1" d="M223.69,101.79c.53,0,1.06,0,1.59,0s1.15,0,1.71,0v.51c-.43,0-.66,0-.73.51,0,.22,0,1,0,1.23v2.67c0,1.77,0,1.88.78,1.87v.51c-.56,0-1.13,0-1.68,0s-1,0-1.63,0v-.51c.75,0,.75-.13.77-1.52V104c0-1.57,0-1.67-.77-1.67Z"/><path class="cls-1" d="M236.43,106.34c-.59.06-.59.22-.59,1.27,0,.35,0,.6,0,1.12a8.12,8.12,0,0,1-2.59.49,3.62,3.62,0,0,1-3.81-3.83,3.53,3.53,0,0,1,3.75-3.7,9.74,9.74,0,0,1,2.62.45c0,.82,0,1,.07,2l-.55,0a3.19,3.19,0,0,0-.39-1.12,1.71,1.71,0,0,0-1.47-.76A1.84,1.84,0,0,0,232,103a4,4,0,0,0-.68,2.43,6.21,6.21,0,0,0,.16,1.49c.35,1.42,1.3,1.75,1.83,1.75.79,0,.79-.51.79-.88,0-1.27,0-1.39-.74-1.4h-.2v-.49h3.24Z"/><path class="cls-1" d="M243,101.62c.15.51.21.71.42,1.37l1.44,4.4c.38,1.1.41,1.18.94,1.19v.49c-.56,0-1,0-1.55,0l-1.56,0v-.48c.22,0,.54,0,.54-.37a4.78,4.78,0,0,0-.27-1l-.23-.76h-1.9a7.22,7.22,0,0,0-.5,1.68c0,.42.36.41.54.4v.5l-1.07,0-1.25,0v-.49c.54-.06.63-.16,1.06-1.2l.47-1.13.58-1.46.68-1.73.36-1Zm-1.13,2-.84,2.33h1.52Z"/><path class="cls-1" d="M253.9,103.55c.36-.81.43-1,.71-1.75l1.09,0,1.09,0v.49c-.63,0-.66.14-.66,1.51l0,3.17c0,1.55,0,1.62.78,1.62v.49c-.5,0-1,0-1.49,0s-1.17,0-1.79,0v-.49c.81,0,.82-.06.82-1.62l0-3c-.3.69-.35.81-.66,1.46l-1.2,2.67c-.21.46-.24.52-.44,1h-.58c-.19-.47-.22-.55-.4-1l-1.32-3-.46-1.06,0,2.61c0,.26,0,.52,0,.79,0,1,0,1.15.65,1.17v.49l-1.06,0-1.18,0v-.49c.71,0,.75-.07.82-1.61l.14-2.89c0-.49,0-.78,0-1,0-.71-.14-.78-.7-.81v-.49c.52,0,.74,0,1.07,0s.63,0,1.14,0c.18.48.21.51.4,1l.92,2.11c.39.86.46,1,.84,1.93.37-.91.46-1.11.8-1.85Z"/><path class="cls-1" d="M259.29,101.79c.54,0,1.06,0,1.6,0s1.14,0,1.7,0v.51c-.43,0-.66,0-.72.51,0,.22-.05,1-.05,1.23v2.67c0,1.77,0,1.88.78,1.87v.51c-.56,0-1.12,0-1.69,0s-1,0-1.62,0v-.51c.75,0,.75-.13.77-1.52V104c0-1.57,0-1.67-.77-1.67Z"/><path class="cls-1" d="M233.16,33H78.84V0H233.16ZM80.48,31.32h151V1.65h-151Z"/><path class="cls-1" d="M302.77,75.76l.18-.53-.38-.42a11.57,11.57,0,0,1-1.48-2.34c-.22-.38-.42-.77-.65-1.15l-.14-.24-.23-.12a3.15,3.15,0,0,1-1.66-1.6l-.18-.47-.49-.12A2.59,2.59,0,0,1,296,67.42l-.17-.31-.33-.13a4.61,4.61,0,0,1-2.22-1.61l-.39-.57-.66.18c-.27.08-.77-.28-1-.71l-.23-.36-.42-.07a8.48,8.48,0,0,1-2.34-1A12.55,12.55,0,0,0,285,61.53a4,4,0,0,0-.76-.66c-.25-.18-.35-.26-.39-.34a9.13,9.13,0,0,0-.38-3.3,7.8,7.8,0,0,1-.35-2.58l.09-.73-.69-.28-.14-.06a1.47,1.47,0,0,1-.09-.34c-.05-.2-.11-.44-.2-.7l-.14-.42-.42-.16a4.68,4.68,0,0,1-2-2.36,12.54,12.54,0,0,0-1.06-1.69l-.26-.34-.43,0h-.12a1.35,1.35,0,0,0-.67.17,1.5,1.5,0,0,0-.65-.29l-.77-.14-.3.73a11.66,11.66,0,0,0-.6,7.59l.06.29.22.2a1.24,1.24,0,0,0,.43.27,3,3,0,0,0,.77,2.41,21.51,21.51,0,0,0-4.26-.83l-2.76-.24c-2.14-.19-4.16-.37-6.12-.47h-.31l-.85-.05a28.85,28.85,0,0,0,.87-3.29c.65-2.89,1.27-5.63,3.44-6.6l.34-.15.16-.33a5.61,5.61,0,0,0,.31-1.22,2.86,2.86,0,0,1,.19-.78l.41-.68-.58-.53c-.15-.14-.17-.21-.13-.79a4.56,4.56,0,0,0,0-1l-.09-1-.85.15a1.2,1.2,0,0,1-.05-.26l-.06-.5-.85-.45A17.07,17.07,0,0,1,260,36.35l-.16-.18-.22-.08a1.53,1.53,0,0,0-1.55.15l-.18-.11a3.52,3.52,0,0,0-.7-.34l-.92-.3-.18.54a2,2,0,0,0-1.26-.43h-.49l-.28.32a5.76,5.76,0,0,1-.57.53,3.92,3.92,0,0,0-1.46,2.1,8.32,8.32,0,0,0-.18,2.29c0,.33,0,.67,0,1l0,.56.5.3a2.17,2.17,0,0,1,.85,1.14c.1.21.21.44.35.69A3.2,3.2,0,0,0,254.93,47c.37.3.57.49.65.76l.13.46.55.21.11,0a2.47,2.47,0,0,0,0,.59l0,.18.1.16c.66,1,.11,2.6-.47,4.24-.17.48-.34,1-.48,1.43a1.43,1.43,0,0,0,0,.83c-.07.17-.15.34-.24.52a9,9,0,0,0-.49,1.12c-6.56.64-11.61,1.65-15.42,3.09a6.68,6.68,0,0,0-1.63,1l-.24.18a1.79,1.79,0,0,1-.4.06,3.32,3.32,0,0,0-1,.21,22.17,22.17,0,0,0-3.34,2l-.89.6A23.7,23.7,0,0,0,227,69.22l-.68.76h0a1.36,1.36,0,0,0-1,1.24,1.88,1.88,0,0,0-.73.56,10.05,10.05,0,0,0-1.17,2.51l-.09.27a2.87,2.87,0,0,1-.39.62,2.48,2.48,0,0,0-.49.88,3.07,3.07,0,0,0,.17,1.79,2.75,2.75,0,0,1,.09.28,8.85,8.85,0,0,1-.08,1,4.51,4.51,0,0,0,.3,2.86,2.6,2.6,0,0,0-.08.45l0,.4.27.3a6.06,6.06,0,0,0,1.18,1c.55.36.89.6,1,1l.29.65.7,0a3.37,3.37,0,0,1,1.57.57,4.24,4.24,0,0,0,1.2.53l.16,0,0-.22c.12.13.27.32.39.48a4.69,4.69,0,0,0,1.07,1.12,1.58,1.58,0,0,0,.92.23h.08a4.06,4.06,0,0,1,.5.51,3.22,3.22,0,0,0,1,.88,1.93,1.93,0,0,0,1,.09l.22,0a1.86,1.86,0,0,1,.47.26,2.31,2.31,0,0,0,1.12.48,4.65,4.65,0,0,0,1.27-.1,1.61,1.61,0,0,1,1.21.07l.34.23.39-.08a10,10,0,0,0,3.37-1.52,7.1,7.1,0,0,1,2-1l.89-.27-.16-.82a.3.3,0,0,0,0-.1c2.69-1.82,4.43-4.52,6.12-7.13a44.65,44.65,0,0,1,2.76-3.94l.16-.19,0-.25a2.21,2.21,0,0,1,.26-.74,3.4,3.4,0,0,0,.4-1.2,2.14,2.14,0,0,0,.4-.44.21.21,0,0,1,0-.06l.28-.14.13-.38a55,55,0,0,1,4.18-9.66,43.73,43.73,0,0,1,5.62-.33,70.21,70.21,0,0,1,12.34,1.14c1.07,2.49,1,5.8.88,9,0,1.11-.06,2.25-.05,3.35,0,.33,0,.68,0,1a9.25,9.25,0,0,1,0,1.66,1.32,1.32,0,0,0-.47.88,1.66,1.66,0,0,0,.26.88v0a7.21,7.21,0,0,1-.26.86,6.37,6.37,0,0,0-.43,1.77,17.58,17.58,0,0,1-.5,3.19,21,21,0,0,0-.44,2.33,3.91,3.91,0,0,0-.77,2.81c-.28.39-.54.8-.82,1.2-1.23,1.84-2.38,3.58-4.25,4.54l-1.51.77,1.44.9.37.25a4,4,0,0,0,2.46.9l.44,0,.42,0,.26-.33.15-.21c.06-.1.16-.24.26-.27h.1l.86.11.2-.85c.17-.73.41-.79.56-.83l.62-.15.1-.64a7.64,7.64,0,0,1,.92-2.46A11.49,11.49,0,0,0,280,92h.38l.2-.69a1.35,1.35,0,0,0,0-.88c1.82-3.44,2.31-7.05,2.83-10.86l.17-1.17a4,4,0,0,1,.17-.66,4.4,4.4,0,0,0,.26-1.28,5,5,0,0,1,.2-1.25,5.38,5.38,0,0,0,.21-1.06,1.61,1.61,0,0,0-.24-.92l0-.06a14.31,14.31,0,0,1,.27-2.29l0-.15c1.57,1.82,3.14,3.6,4.8,5.27l.28.28h.38a2.1,2.1,0,0,0,.6.58l.1.06.16.13.2,0a7.73,7.73,0,0,1,2,1,8.52,8.52,0,0,0,4.25,1.58,1.77,1.77,0,0,0,1.29.55h.09a5.12,5.12,0,0,0,1.26-.29,5,5,0,0,1,1.5-.27h.21l.18-.09c1.2-.62,1.1-2,1-2.83A3.38,3.38,0,0,1,302.77,75.76Zm-12.43-1.83a18.11,18.11,0,0,1-1.67-1.84c-.39-.53-.47-.92-.93-1.46a1.08,1.08,0,0,0-.82-.41c-.41-.55-2.29-2.57-1.55-3.08A47.35,47.35,0,0,1,290,69.6c.85.5,1.72,1,2.61,1.49a.56.56,0,0,0,.05.08l.06.78.71.23c1.46.48,2.8,2.24,3.87,3.66.33.43.64.85.95,1.21-.14,0-.5.57-.62.59a3.73,3.73,0,0,1-.74,0A1.86,1.86,0,0,0,296,77c-.3-.08-.58-.13-.86-.18a4,4,0,0,1-1.14-.31,0,0,0,0,1,0,0,2.29,2.29,0,0,0-.82-.9,1.52,1.52,0,0,0-.82-.13,1.43,1.43,0,0,1-.12-.21,3.18,3.18,0,0,0-.78-1,1.53,1.53,0,0,0-1-.3Zm-59,7.06a7,7,0,0,1,.31-2.48,1.41,1.41,0,0,1,.21-.19,2.53,2.53,0,0,0,.63-.77,1.22,1.22,0,0,0,0-.94l.1-.17.11-.21c1.15-1.92,3.74-4.07,5.13-5.23a35.26,35.26,0,0,1,8.86-5.18,8.81,8.81,0,0,1,1.45-.35,13.88,13.88,0,0,0,1.43-.33c.49-.14,1-.3,1.44-.46.72-.24,1.42-.47,2.1-.64-2.67,8.74-6.29,17.24-13.7,21.81a5.2,5.2,0,0,1-2.23.49h0a7.53,7.53,0,0,1-5-2.09,9,9,0,0,0-.79-2.29l-.12-.24C231.37,81.48,231.38,81.23,231.38,81Z"/><path class="cls-1" d="M104.09,86.62c-.91-2-3.14-4.24-4.77-5.88-.47-.48-.89-.9-1.23-1.27L98,79.4a16.59,16.59,0,0,0-6.11-1.2c-1-.06-2-.13-3-.27a83.07,83.07,0,0,0-11.49-.75c-15.15,0-30.11,3.44-37.78,5.53-2.1-1.84-4-3.75-4.1-6.66.17-.41.34-.83.5-1.24.82-2.06,1.66-4.19,3.24-5.47l.14-.12,0-.18a3.59,3.59,0,0,0-.15-.6.3.3,0,0,1,0-.14s0,0,0,0a.77.77,0,0,0,.59.39.66.66,0,0,0,.44-.2l.08-.12a3,3,0,0,1,1-1.18,3.28,3.28,0,0,0,1.26-1.76l.29-.11a3.41,3.41,0,0,0,.73-.33l.14-.1v-.69a2.49,2.49,0,0,0,1.43-.9,2.32,2.32,0,0,1,.81-.64.3.3,0,0,1,.07.08.71.71,0,0,0,.79.37h.1l.07-.07a1.57,1.57,0,0,0,.5-1.89,2.11,2.11,0,0,0,1.13-.78,1.36,1.36,0,0,1,1.09-.62H50l.1-.17a3.49,3.49,0,0,0,.32-.74,1,1,0,0,1,.44-.64l0,0,.05,0a.93.93,0,0,0,.67.26h.1l.07-.06a15.91,15.91,0,0,0,3.75-4.78,26.34,26.34,0,0,1,2.09-3.14l.13-.15-.09-.19c-.21-.43.14-1.09.47-1.74a2.81,2.81,0,0,0,.52-1.72.33.33,0,0,0-.18-.24.7.7,0,0,0,.19-.49,1.23,1.23,0,0,1,.26-.95l.07-.1,0-.13c-.06-.49-.12-1.06-.18-1.68-.31-3-.68-6.68-2.39-8.07a3.75,3.75,0,0,0-.07-.54,1,1,0,0,1,0-.75l.1-.18-.13-.17a40.49,40.49,0,0,1-4.46-7.33L51.82,26c-1.39-1.37-2.69-2.89-3.94-4.36a62.2,62.2,0,0,0-4.41-4.8l-.1-.07a8.73,8.73,0,0,1-1.8-1.09A8.58,8.58,0,0,0,38.33,14a6.09,6.09,0,0,0-1.13-.1,3.92,3.92,0,0,0-3.89,2.24,1.16,1.16,0,0,0,0,.87,1.56,1.56,0,0,1,.11.67c0,.47-.07.94-.12,1.4-.19,1.81-.39,3.69,1.2,5l.15.11.17-.06a2.43,2.43,0,0,0,.93-.75l.19-.2A11.47,11.47,0,0,1,37.17,26c.1.32.21.64.31.95l.06.11a44.08,44.08,0,0,1,5.75,8l.07.15.17,0h.41l.1.15c1.47,2.32,3,4.72,2.9,7.31a53.43,53.43,0,0,1-7.29,11.25,21.12,21.12,0,0,0-5.47,6.43l-.25.08a1.15,1.15,0,0,0-.51.22l-.1.1c-.33.67-.78,1.4-1.26,2.18a22.27,22.27,0,0,0-2.77,5.59,6.28,6.28,0,0,0-.17,1.23A6.68,6.68,0,0,1,29,70.94a7,7,0,0,1-.47,1.22A6.54,6.54,0,0,0,28,73.52a12.6,12.6,0,0,0,.2,4.55,14.21,14.21,0,0,1,.27,2.27v.1l.24.32c.32.44.65.89.95,1.37A26.48,26.48,0,0,0,21.27,81a61.84,61.84,0,0,0-8.42.67l-.07,0C8.33,83.27,4.43,84.86,1.88,88l0,.09c-.15.38-.28.78-.41,1.18A9.29,9.29,0,0,1,.27,91.86l-.05.07V92a10.52,10.52,0,0,0,.33,5.44l0,.08,0,.06a4.11,4.11,0,0,0,3.3,1v-.32l.1.32a9.5,9.5,0,0,1,1.29.06A4.62,4.62,0,0,1,6.44,99a4.86,4.86,0,0,0,1.27.42A9.33,9.33,0,0,0,9,99.53c3.08,0,6.32-1.35,8.5-2.36A8.79,8.79,0,0,0,19,96.26a3.29,3.29,0,0,1,2.4-1l.35.06,0-.35c0-.56.4-.66,1.08-.79a3.73,3.73,0,0,0,.81-.22c.5-.22,1-.48,1.53-.75a13.58,13.58,0,0,1,3.7-1.48l.14,0,.07-.12c.75-1.15,2.27-1.59,3.78-1.91,1.07,1.32,1.26,2.2.68,3l-.1.12,0,.15a9,9,0,0,0,.62,1.61c.12.28.25.55.37.82l-.06,0a.63.63,0,0,0-.29.74l0,.06a5.76,5.76,0,0,1,.3,2.25c0,1.5.06,3.19,1.47,4.17a8.66,8.66,0,0,0,3.65.77,22.28,22.28,0,0,0,5.82-1.09l.67-.18.06-.11a14.62,14.62,0,0,1,1.27-1.64,7.65,7.65,0,0,0,2-3.44c.93-4.84-2.1-7.66-4.54-9.93-.37-.34-.73-.67-1.06-1,2.5-1.56,6-2.66,10.52-3.29,6.07-2,13.89-2.26,20.79-2.48l2-.07a38,38,0,0,0,4.61.93c2.78.45,5.66.9,7.47,2.31a2,2,0,0,0-.38,1.32,7.11,7.11,0,0,1-.09.84l0,.17.11.12a.87.87,0,0,0,.91.14,1.12,1.12,0,0,1,.48-.07,18,18,0,0,1,2.64,2.55c1.85,2,3.77,4.15,7.14,4.15h0a9.61,9.61,0,0,0,2.14-.26l.09,0,.06-.06C103.63,91,105.33,89.34,104.09,86.62ZM45.3,94.48A1.79,1.79,0,0,1,44,95.84c-.35-.49-.69-1-1-1.49-1.34-1.94-2.74-3.95-4.28-5.78a5.3,5.3,0,0,1,2.25.83.68.68,0,0,1,.06.16.77.77,0,0,0,.32.52,2.88,2.88,0,0,0,.93.33,2.49,2.49,0,0,1,.81.3C44.28,91.59,45.48,93.28,45.3,94.48ZM27.72,85.66c-2.94.9-5.74,2-8.46,3a96.57,96.57,0,0,1-12.18,4,4.24,4.24,0,0,1-.6-1A2.55,2.55,0,0,1,6.82,91a3,3,0,0,0,.41-.86,10.73,10.73,0,0,0,2-1.71,12.14,12.14,0,0,1,1.51-1.37A4.7,4.7,0,0,0,13.46,86a5.8,5.8,0,0,1,1.61-.88,15.67,15.67,0,0,1,4.59-.63A35.15,35.15,0,0,1,27.72,85.66Z"/><path class="cls-1" d="M134,71.85c-1.17-2.84-5.62-3.15-7.48-3.15a19.81,19.81,0,0,0-2.69.19,52.3,52.3,0,0,0-5.29,1.21,31.78,31.78,0,0,1-7.31,1.36,6.83,6.83,0,0,1-1.65-.18l-.06-.44a9.23,9.23,0,0,1-.07-3.54.82.82,0,0,1,.24-.3,2.16,2.16,0,0,0,.55-.78,3.12,3.12,0,0,0,.12-1,2.6,2.6,0,0,1,0-.6,5.21,5.21,0,0,1,.47-.72c.2-.28.42-.61.61-.93l.23-.41c.82-1.48,1.6-2.88,2.8-3.32a3.18,3.18,0,0,1,.93-.09,3.19,3.19,0,0,0,1.57-.27,1.65,1.65,0,0,0,.67-.81c.05-.08.1-.2.19-.24l.63,0,0-.63a6.59,6.59,0,0,1,.92-3.62,8.87,8.87,0,0,0,1-2.84l.06-.41-.34-.22a3,3,0,0,0-2.36-.37,7.44,7.44,0,0,0-1.91-2.78l-.15-.15h-.21c-2.46-.25-3.63.36-4.73,1.61a11.4,11.4,0,0,1-1.26-.91c-.28-.22-.55-.43-.78-.59a1.08,1.08,0,0,0-.63-.21,1.45,1.45,0,0,0-1,.6l-.19.19-.63-.37-.24.77a7.34,7.34,0,0,1-.7,1.47,9.81,9.81,0,0,0-.74,1.56l-.08.22.08.21a9.22,9.22,0,0,1,.38,2,7,7,0,0,0,.47,2.15c-2.34,5.16-5,12.55-2.1,18.4l0,.1.08.08a7.77,7.77,0,0,0,5.69,2.19h0c2.9,0,6-1.13,9-2.21a32.75,32.75,0,0,1,5.74-1.73h.1l1.11,0q.61,0,1.26,0c2.25,0,3.24.46,3.43,1.6a9.16,9.16,0,0,1-.77,3.84,12.19,12.19,0,0,1-1.52,2.51,14,14,0,0,0-1.52,2.44,10.73,10.73,0,0,1-.63,1.17,4.24,4.24,0,0,0-.86,2.87l.1.8.76-.28c2.37-.9,3.64-2.65,4.87-4.34a18.84,18.84,0,0,1,2.25-2.7l.17-.17,0-.24A8.5,8.5,0,0,1,133.5,77C134.17,75.5,134.88,73.92,134,71.85Z"/><path class="cls-2" d="M216,82.18c-5.35-4-13-4.84-20.88-5.94-5.62.22-10.9-.6-16.86,1.44,0-3.2-.93-7.58-1.61-11.72-1.3-1.86-2.39-3.92-3.69-5.78a6.3,6.3,0,0,1-2.25-1.93,20,20,0,0,0-5.95-1.93,43.31,43.31,0,0,0-5.94.8c-1-.63-.43-1.72-.32-3.21.2-2.62.14-4.61.81-6.74.19-.64.77-1.14,1-1.77,0,0-.27-.26-.16-.48s.55-.25.64-.49,0-.91.16-1.28a13.69,13.69,0,0,1,1.13-1.44c.13-.24,0-.46.16-.65s1-.37,1.28-.64c.63-.53,1-1.59,1.77-1.77h1.12a3.38,3.38,0,0,1-.16-1.76c-1-.47-2.1-.79-2.57-1.77-.92,0-2,.57-3.05.16-6.8,4.54-8.09,14.22-8.19,23.93-2.65,2.65-6.49,4.11-8.51,7.39-.22,0-.31-.23-.64-.16-.37.34.13.55,0,1.12-2.45,1-1.45,4.46-.17,6a5.54,5.54,0,0,1,2.57,1.6c1.32,0,2.31-.18,2.73.65a6,6,0,0,1,3.22-.65c1.12-.89,1.6-1.5,2.57-2.41,2,.91,2.31,3.47,3.69,5a24.83,24.83,0,0,0,6.9,4c1.32.49,3.75,1.36,4.66,0a4.76,4.76,0,0,0-2.4-1.45c-1.5-2.37-4.31-4.24-4.5-7.38-1.47-.79-1.44-2.76-2.09-4a9.18,9.18,0,0,1,7.07-1.6,8.8,8.8,0,0,1,2.73,3.37c2,5.94,1,12.7-.48,18.3-1.17,3.34-3,6-4,9.48-1.18.7-1.57,2.18-2.57,3-.74-7,.19-11.67-.32-17.66-1.88,5.5-2.42,13.43-3,19.11.18.25.52.33.48.8-.31.07,0,.74-.64.48.92,1.34.18,3.36,2.09,3.7a3.68,3.68,0,0,1,2.09-.49,4,4,0,0,1,2.4-2.56c0-.5.35-.73.49-1.13.2-.16.59-.16.8-.32A69.5,69.5,0,0,0,171.88,97a44.37,44.37,0,0,1,3.21-6.26c.42-3.56,2.68-7.45,2.73-11.4,3-.05,6.4-1,9.31-1,.51,0,1,.49,1.45.49s.8-.46,1.12-.49a25.65,25.65,0,0,1,4.66.33c2.35.29,5.76.66,8.51,1.28,1.66.38,3.11,1.43,5,1.61.56,1,2.52.58,2.57,2.09-.6.14-1,.51-.8,1.44,2.42,1.26,6.41.47,6.74-2.09A.79.79,0,0,1,216,82.18Z"/><path class="cls-3" d="M312,106.54a2.57,2.57,0,0,1-.76,1.77,2.48,2.48,0,0,1-1.77.63c-1.05,0-1.05.12-2.11.12h-2.11c-1.05,0-1.05,0-2.11,0s-1.05-.08-2.11-.08-1,.11-2.11.11-1.05-.11-2.11-.11-1.05.1-2.11.1a2.68,2.68,0,0,1-2.51-2.49c0-1.05.08-1.05.08-2.11s0-1.05,0-2.1-.1-1.06-.1-2.12,0-1,0-2.11V96c0-1.06,0-1.06,0-2.12s.08-1,.08-2.1A2.35,2.35,0,0,1,293,90.1a2.45,2.45,0,0,1,1.67-.85c1.06,0,1.06.08,2.11.08s1.06.06,2.11.06,1.06,0,2.11,0,1.06,0,2.11,0,1.06,0,2.11,0,1.06,0,2.11,0h2.11a2.37,2.37,0,0,1,1.67.77,2.3,2.3,0,0,1,.72,1.67c0,1,.09,1,.09,2.1V96c0,1.06-.12,1.06-.12,2.11s.11,1.06.11,2.11,0,1.06,0,2.11,0,1.06,0,2.11S312,105.49,312,106.54Zm-4.82-16.07c-.05.3-.25.35-.2.6-.43-.28-.34.48-.8.39a12.54,12.54,0,0,1-.26,1.66c.86.62,1.91.28,2.92.74.25-.11.38-.33.67-.41-.06-.32.48-1,.06-1.32.44-.33.08-1.29-.47-1.26a.7.7,0,0,0-1.12-.34C307.69,90.25,307.6,90.46,307.18,90.47Zm-3.12,1.79c0-.69,0-1-.4-1.26-.3.29-1.21,0-1.4.4,0,.16.13.14.07.33-.3,0-.29.23-.53.26,0,.62-.51,1-.33,1.53-.16,0-.18.22-.34.26a35.32,35.32,0,0,1-.86,4.12c-1.23,0-2.29-.49-3.65-.53-.15-.05-.15-.25-.34-.26-.12.27-.44,0-.66,0a.67.67,0,0,1-.66.33,9.23,9.23,0,0,0,.07.93,2.86,2.86,0,0,0,1.72,1.06c0,.09-.08.1-.07.2,1,.24,1.9,1,3.26.93.39,2.61.59,4.89,1.92,6.71a9.91,9.91,0,0,0,1.14.13.79.79,0,0,0,.86.47c-.1-.39.13-.45.2-.67s-.27-.26-.13-.59c-.4-.07-.78-.16-.93-.47-.05-.48-.25-1.36-.34-1.79s.07-.83,0-1.2c0-.1-.2-.23-.2-.33a7.85,7.85,0,0,1,.2-1.79,1.22,1.22,0,0,1,1-.6c.51-1.35,2.63-1.09,3.52-2.06a.62.62,0,0,1,0-.53c-.13-.1-.41,0-.33-.33a5.1,5.1,0,0,1-3.79.53c.36-2.2.88-4,1.26-5.65C304.2,92.38,304.1,92.35,304.06,92.26Zm-7-.13a1.59,1.59,0,0,0-1.27.2,5.53,5.53,0,0,1-.93-.14c-.35.75-1.87,1-1.39,1.8.35.56.65.39.79,1.06.62.14,1.25.26,1.47.79,1.12,0,2,.25,2.39-.79-.2-.28,0-.63.13-.8-.17-.26,0-.74-.06-1.19-.38-.16-.33-.73-.93-.8C297.47,92.06,297.19,91.9,297,92.13Zm8.36,9.36c-.79,0-1.31.85-.66,1.4,0,.14-.16.18-.13.4.25-.1.12.18.33.13s0-.22.2-.2.43.37.6.6c.13-.12.41-.08.6-.14-.06.3.11.37.33.4s.13-.35.4-.33c0,.41.43.42.73.53A.59.59,0,0,1,308,104a1.31,1.31,0,0,0,1.93-.8c-.53-.19-.05-.65-.14-1.13-.37,0-.7,0-.66-.4a.62.62,0,0,0-.53,0c-.06-.41-.41-.3-.8-.26,0-.1-.09-.13-.06-.27C307,101.25,306.12,101.71,305.38,101.49Zm-10.49,2c-.24.53-.36,1.2-.93,1.4v.53c.45,0,.31.53.6.66.42-.27.52.2,1-.06a.52.52,0,0,0,.07.33c.47.18.51-.22.93-.07.11-.94.94-1.18.47-2-.07-.25.16-.19.13-.4C296.66,103,295.71,103.41,294.89,103.48Z"/><path class="cls-4" d="M200.16,67.41a4.47,4.47,0,0,1-.75-.06,2,2,0,0,1-.11,1.49,2.49,2.49,0,0,1-2.28,1h-5.5a2,2,0,0,1-2-3.41l2.75-4.77a2,2,0,0,1,3.94,0l1,1.81a5.6,5.6,0,0,1,.28-.54l.55-1-.6-1a3.48,3.48,0,0,0-6.49,0l-2.75,4.76a3.48,3.48,0,0,0,3.25,5.62H197a3.85,3.85,0,0,0,3.55-1.69,3.21,3.21,0,0,0,.35-2.17Z"/><path class="cls-2" d="M197.5,63h-7.06v8.29h7.66V66.92C196.86,66.19,196.56,64.7,197.5,63Z"/><path class="cls-5" d="M205.66,68.14h-5.5a3.47,3.47,0,0,1-3.24-5.62l2.75-4.76a3.48,3.48,0,0,1,6.49,0l2.75,4.76a3.47,3.47,0,0,1-3.25,5.62ZM202.92,57a2.47,2.47,0,0,0-2,1.49l-2.76,4.77a2,2,0,0,0,2,3.41h5.5a2,2,0,0,0,2-3.41l-2.76-4.77A2.47,2.47,0,0,0,202.92,57Z"/><rect class="cls-1" x="199.08" y="59.86" width="7.66" height="8.28"/></g></g></svg>