<svg xmlns="http://www.w3.org/2000/svg" viewBox="0 0 95 177.45"><defs><style>.cls-1,.cls-2{fill:#fff;}.cls-2,.cls-3{fill-rule:evenodd;}.cls-3,.cls-5{fill:#ff7c54;}.cls-4{fill:#6aa24e;}</style></defs><g id="レイヤー_2" data-name="レイヤー 2"><g id="レイヤー_1-2" data-name="レイヤー 1"><path class="cls-1" d="M84.64,12.3c3.18.81,4,2.55,4,2.81s-.08.25-.75.61a5.19,5.19,0,0,1-1.12.46c-.2,0-.26-.17-.29-.28a7.24,7.24,0,0,0-.78-1.55l-2.51.28v5.59a12.79,12.79,0,0,1-1.66.33c-.31,0-.31-.13-.31-.42,0-.48.07-2.63.07-3.06a5.3,5.3,0,0,0-2,1.26,12,12,0,0,1-1.93,1.86l-1.53-1.41a7.18,7.18,0,0,0,3.6-3.4l.84.18a7,7,0,0,1-.41,1.38l0,0a10.84,10.84,0,0,1,1.39-.61l0-1.49a20.46,20.46,0,0,0-3.39.67,1.62,1.62,0,0,0-1,.75h-.5c-.06-.31-.36-1.71-.36-1.87,0-.31.33-.35.58-.35l3.47-.13c.28-.25.44-.39.84-.79a9.73,9.73,0,0,0-2.65-1,.7.7,0,0,1-.64-.68c0-.3.22-.47.48-.67a7.94,7.94,0,0,0,2.32-3.29.31.31,0,0,0-.1-.28l.2-.24c.55.16,2.52.78,2.52,1.08,0,.48-2.52,2.3-3.26,2.82a7.3,7.3,0,0,1,1.81,1.56c.72-.8,2.09-2.46,2-3.19l.16-.15c1.27.41,2.16.77,2.25.82a.3.3,0,0,1,.2.25c0,.39-2.45,2.05-4.9,3.72l3.85-.17a5.91,5.91,0,0,0-1-1Zm-.41,3.46a6.9,6.9,0,0,1,4,2.26c.17.18.31.34.31.49s-.12.25-1.24,1c-.48.31-.54.31-.63.31s-.15,0-.33-.4a8.39,8.39,0,0,0-2.58-3.23Z"/><path class="cls-1" d="M80.17,34.11a44,44,0,0,1,6.1-.73c.88,0,2,.28,2,1.66a6.06,6.06,0,0,1-1.33,3.59,2.6,2.6,0,0,1-1.9.82c-.32-.88-.83-1.05-1.78-1.38l.11-.4c.28,0,1.54.32,1.75.32.75,0,1-2.65,1-2.9,0-.73-.28-.87-.75-.87a23.89,23.89,0,0,0-3.81.36.58.58,0,0,1,0,.14c0,.23-.08.68-.33,2.3l1.48-.11c0-.41.1-1.31.1-1.54s0-.33-.2-.37v-.25h1.26c.54,0,.87,0,.87.32a12.42,12.42,0,0,1-.89,2.52,5.49,5.49,0,0,0-.58,0,19.37,19.37,0,0,0-5,.82v.11a10.66,10.66,0,0,1-1.36.29c-.15,0-.19-.07-.22-.21s-.17-1.9-.19-2.16C76.41,35,76.42,35,76.16,35v-.29l1.75-.1c.44,0,.49.14.49.46,0,.76,0,1.54-.05,2.3l1.4-.2c0-.27-.08-1.15-.11-1.94l-.81,0c-.31,0-.36-.15-.37-.46,0-.65-.11-5.24-.16-5.83l-.87.52-.4-.37c1.88-1.4,2.76-2.78,2.76-3.25,0-.1-.06-.16-.17-.27l.16-.24,2.09.47c.25.06.52.11.52.32s-.35.52-.59.69c-.42.29-.92.6-2.13,1.32a1.18,1.18,0,0,1,.21,0,39.29,39.29,0,0,1,5.13-1c.48,0,1.43.12,1.43,1.07a26.32,26.32,0,0,1-.5,2.95,42.28,42.28,0,0,0-5.73.6l0,.62c1.36-.17,6.18-.72,7.86-.77v.68c-1.55.07-4.55.44-5.4.56a9.4,9.4,0,0,0-2.47.57Zm.14-4.52c.55-.09,2.18-.32,3.25-.45v.56c-2.43.39-2.7.44-3.3.82,0,.1,0,.5,0,.6,1-.15,2.91-.38,3.86-.5.11-1.28.14-1.62.14-1.88s0-.56-.43-.56a17.87,17.87,0,0,0-3.46.65Z"/><path class="cls-1" d="M78.94,45.49c.54.07,1.64.21,2.23.31a.42.42,0,0,1,.42.46c0,.19-.18,1.12-.21,1.32a8.28,8.28,0,0,0-.07.87,7.18,7.18,0,0,0,2.18-1l0,.2c-.32.28-.34.33-.54,1-.08.29-1.18.73-1.75.93,0,.06-.08,1.52-.1,1.77a10.7,10.7,0,0,1,3.81-1,2.35,2.35,0,0,1,2.7,2.36c0,1.83-1.29,3.67-2.86,3.67s-2-1.35-2.47-2.67l.34-.14a2.06,2.06,0,0,0,1.71,1.25c1,0,1.44-1.3,1.44-2.29,0-.44,0-1.4-1.31-1.4a7.69,7.69,0,0,0-3.4,1.13c-.08,1.93-.11,2.5-.11,3s0,.81-.17,1a1.47,1.47,0,0,1-.86.43c-.08,0-.12-.05-.35-.43a1.53,1.53,0,0,0-1.53-.58,1.08,1.08,0,0,1-.52.13.67.67,0,0,1-.72-.75c0-.88,1.14-2,2.73-3,0-.31,0-1.67,0-1.95a14.84,14.84,0,0,1-1.91.39c-.28,0-.5,0-1-1.57l.2-.1a1,1,0,0,0,.81.35,10.56,10.56,0,0,0,1.91-.31c0-.58,0-2.49-.13-2.72s-.29-.3-.52-.34Zm-.42,9a.5.5,0,0,0,.29.42,4.13,4.13,0,0,0,.72.25c.12,0,.17-.16.17-.25V53.09A4.61,4.61,0,0,0,78.52,54.54Zm5.62-5.22a8.55,8.55,0,0,0,1.3-2.89.37.37,0,0,0-.14-.32l.14-.17c1.09.38,1.57.55,2,.72.22.1.31.19.31.35,0,.45-2.22,2-3.06,2.59Z"/><path class="cls-1" d="M79.26,63.94c.3,0,1.71-.12,2-.12.48,0,.56.28.56.7a18,18,0,0,1-.15,1.91,6.53,6.53,0,0,0,1.73-.61l.16.4a2.16,2.16,0,0,0-.9.79c-.13.18-.33.25-1.1.46a13.83,13.83,0,0,1-.59,2.32,1.16,1.16,0,0,1,.15.61c0,.45-.47,2.36-.47,2.75s0,1,1.49,1a4.23,4.23,0,0,0,3.33-1.49,5.68,5.68,0,0,0,1.12-2.79l.56.28c-.15,4.36-2.88,5.48-5.25,5.48-2.69,0-2.91-1.74-2.91-2.36,0-.26,0-.3-.24-.37-1.53-.47-1.79-.63-1.79-1.37,0-.43.37-2.2,2.75-2.2a8.22,8.22,0,0,0,.17-1.51,21.67,21.67,0,0,1-2.38.47.58.58,0,0,1-.6-.42c-.1-.22-.39-1-.51-1.35l.21-.16c.25.36.44.45,1.15.45s1.73-.11,2.17-.15c0-1.79,0-2.33-.62-2.44Zm-.37,6.41a1.18,1.18,0,0,0-1.12,1c0,.62,1.25.77,1.34.77s.12-.06.14-.18.17-1.15.2-1.37A.77.77,0,0,0,78.89,70.35Zm6.94-1.8a14.92,14.92,0,0,0,.36-2.65c0-.47-.14-.63-.45-.75l.07-.36c.29,0,1.73.24,2.06.3s.57.14.57.45-.62,1.57-1.88,3.23Z"/><path class="cls-1" d="M82.15,95.47a33.59,33.59,0,0,0,.41-4.92,1.67,1.67,0,0,1-1.34.59,2,2,0,0,1-2-2.13,2.67,2.67,0,0,1,3.48-2.31c0-.24,0-1.06,0-1.18-1.06.15-4.4.62-5.24.62-.38,0-.54,0-1.22-2.11l.29-.17c.49.55.87.73,2.85.73,1,0,2.31-.07,3.29-.15,0-2-.14-2.34-.79-2.46v-.27c.56-.06,1.53-.17,2-.17.76,0,.76.59.76,1.12s0,1.13,0,1.6a26.63,26.63,0,0,0,3.6-.53,7.35,7.35,0,0,1-.4.79,24.57,24.57,0,0,1-3.24.72c0,.73-.13,2.05-.24,2.68a1.89,1.89,0,0,1,.33,1.17c0,1.46-.56,4.64-1.91,6.21Zm-.62-8.14c-.67,0-1.1.78-1.1,1.51s.5,1.12.92,1.12c.2,0,.89-.06,1.07-1.31C82.43,88.29,82.42,87.33,81.53,87.33Z"/><path class="cls-1" d="M76.33,103.24c.26.42.54.58,1.32.58,1.09,0,2.72-.28,3.42-1.15a12.17,12.17,0,0,0,.93.87.4.4,0,0,1,.12.28c0,.14-.14.2-.43.28a10.76,10.76,0,0,0-1.37.55,11.63,11.63,0,0,0-1.14,4.52c0,1.5.8,2,1.37,2,1,0,2.13-.81,4.07-4.78a7.69,7.69,0,0,1-.64-1.79,16.42,16.42,0,0,1-.29-2,.46.46,0,0,1,.29-.47c.3-.17,1.14-.53,1.74-.78l.17.38c-.21.18-.32.28-.32,1a9.81,9.81,0,0,0,2.84,6.52l-.53.63a8.21,8.21,0,0,1-2.71-2.56c-.92,2.55-2.09,5.73-4.45,5.73a3.13,3.13,0,0,1-3-3.18A12.59,12.59,0,0,1,79.22,105a7.75,7.75,0,0,1-1.69.51.71.71,0,0,1-.63-.34,8.18,8.18,0,0,1-.85-1.76Zm11.78,0a19,19,0,0,0,.44-1.9.13.13,0,0,0-.13-.14,6.65,6.65,0,0,0-.88.56c0,.19-.06.65-.09,1l-.79.36a9.09,9.09,0,0,0-.33-1.77.34.34,0,0,0-.31-.17v-.25a12,12,0,0,1,1.35-.39c.28,0,.26.2.22.7a2.66,2.66,0,0,1,1.75-.84c.48,0,.64.3.64.55a8.51,8.51,0,0,1-1.21,2.29Z"/><path class="cls-1" d="M42.71,126h2.82l.09,1.07-.31,0c-.07-.5-.16-.77-.77-.77-.25,0-.31,0-.34.15s0,.49,0,.65v.84c.86,0,.91,0,.92-.48h.3c0,.22,0,.45,0,.67s0,.38,0,.64h-.29a.57.57,0,0,0-.13-.42c-.11-.08-.26-.08-.81-.08v1c0,.56.06.6.49.61v.27l-1,0c-.3,0-.62,0-.93,0v-.27c.2,0,.37,0,.41-.23a6.35,6.35,0,0,0,0-.78v-1.78c0-.78,0-.84-.45-.85Z"/><path class="cls-1" d="M47,126l.91,0,1,0v.28c-.25,0-.38,0-.42.26s0,.92,0,1.16a8.3,8.3,0,0,0,.05,1.36.89.89,0,0,0,.33.61.72.72,0,0,0,.49.16.77.77,0,0,0,.48-.14,1,1,0,0,0,.36-.71,6.82,6.82,0,0,0,0-1.07,9.15,9.15,0,0,0,0-1.45c0-.16-.15-.17-.4-.18V126h1.38v.28c-.31,0-.41,0-.43.38s0,.64,0,1.84a1.78,1.78,0,0,1-.49,1.42,1.57,1.57,0,0,1-1.15.35,1.73,1.73,0,0,1-1.11-.31c-.45-.34-.47-.79-.48-1.62v-1.39c0-.58,0-.66-.43-.67Z"/><path class="cls-1" d="M56,129.89a3.81,3.81,0,0,1-1.54.35,2,2,0,0,1-2.11-2.15,2.08,2.08,0,0,1,2.21-2.22,5.93,5.93,0,0,1,1.5.25c0,.52,0,.66.06,1.16l-.33,0a1.1,1.1,0,0,0-1.93-.68,2.27,2.27,0,0,0-.4,1.45c0,.91.33,1.79,1.27,1.79s1-.73,1.15-1.19l.32,0Z"/><path class="cls-1" d="M57.57,126l.86,0,1,0v.27c-.42,0-.42.08-.43.75v.87h1.43v-.76c0-.8,0-.85-.44-.85V126l.86,0,1,0v.27c-.23,0-.36,0-.41.22a8.14,8.14,0,0,0,0,.86v1.55c0,.92,0,1,.44,1v.29l-1,0-.92,0v-.29c.42,0,.42-.11.43-.81v-.86H59V129c0,.74,0,.82.43.82v.29c-.29,0-.56,0-.84,0l-1,0v-.29c.18,0,.31,0,.38-.14a3.32,3.32,0,0,0,.06-1v-1.41c0-1,0-1-.44-1Z"/><path class="cls-1" d="M63.26,125.94c.3,0,.61,0,.91,0s.66,0,1,0v.3c-.24,0-.38,0-.41.29,0,.12,0,.56,0,.71v1.53c0,1,0,1.08.45,1.08v.29l-1,0-.93,0v-.29c.43,0,.43-.08.44-.88V127.2c0-.91,0-1-.44-1Z"/><path class="cls-1" d="M70.59,128.56c-.35,0-.35.13-.35.73,0,.2,0,.34,0,.65a4.88,4.88,0,0,1-1.49.28,2.08,2.08,0,0,1-2.19-2.2,2,2,0,0,1,2.16-2.13,5.58,5.58,0,0,1,1.5.26c0,.46,0,.6,0,1.14l-.31,0a1.7,1.7,0,0,0-.23-.65,1,1,0,0,0-.84-.43,1.09,1.09,0,0,0-.84.37,2.3,2.3,0,0,0-.39,1.41,3.27,3.27,0,0,0,.1.85c.2.82.74,1,1,1s.45-.3.45-.51c0-.73,0-.8-.42-.8h-.12v-.28h1.87Z"/><path class="cls-1" d="M74.36,125.84c.09.3.12.41.24.79l.83,2.53c.22.63.23.68.54.69v.28l-.89,0-.9,0v-.28c.13,0,.31,0,.31-.21a3.13,3.13,0,0,0-.15-.55l-.14-.45H73.11a4.76,4.76,0,0,0-.29,1c0,.24.21.24.32.23v.29H71.8v-.28c.31,0,.36-.1.61-.7l.27-.64.34-.84.39-1,.21-.58ZM73.71,127l-.48,1.34h.87Z"/><path class="cls-1" d="M80.64,127a8,8,0,0,0,.4-1H82.3v.28c-.36,0-.38.08-.38.87l0,1.82c0,.89,0,.93.45.93v.29l-.85,0-1,0v-.29c.47,0,.48,0,.48-.93v-1.74c-.17.4-.2.47-.38.85l-.69,1.53c-.12.26-.14.3-.25.58h-.34c-.11-.27-.12-.32-.23-.57l-.76-1.74c-.1-.24-.14-.31-.26-.61l0,1.51c0,.15,0,.3,0,.45,0,.6,0,.66.37.67v.29l-.61,0-.67,0v-.29c.41,0,.42,0,.46-.92l.09-1.67c0-.28,0-.44,0-.56,0-.41-.08-.45-.4-.47V126h1.27c.11.28.12.29.23.55l.53,1.22c.22.49.27.58.48,1.11.22-.53.27-.64.47-1.07Z"/><path class="cls-1" d="M83.74,125.94c.31,0,.61,0,.92,0s.66,0,1,0v.3c-.25,0-.38,0-.42.29,0,.12,0,.56,0,.71v1.53c0,1,0,1.08.44,1.08v.29l-1,0-.94,0v-.29c.43,0,.43-.08.44-.88V127.2c0-.91,0-1-.44-1Z"/><path class="cls-1" d="M95,118.93H69.83V1.09H95Zm-23.91-1.26H93.74V2.35H71.09Z"/><path class="cls-1" d="M64.92,161.61l.11-.35-.24-.27a7.86,7.86,0,0,1-1-1.53c-.14-.25-.28-.51-.42-.75l-.09-.16-.16-.08a2,2,0,0,1-1.08-1l-.12-.31-.32-.08a1.63,1.63,0,0,1-1.15-.88l-.11-.2-.22-.09a3,3,0,0,1-1.45-1.05l-.25-.37-.44.12c-.17.05-.5-.18-.67-.46l-.15-.24-.28-.05a5.39,5.39,0,0,1-1.53-.64,7.73,7.73,0,0,0-2-.86,2.09,2.09,0,0,0-.5-.43,1,1,0,0,1-.25-.22,5.93,5.93,0,0,0-.25-2.16,5.08,5.08,0,0,1-.23-1.68l.06-.48-.45-.18-.09,0a.75.75,0,0,1-.06-.22c0-.13-.07-.28-.13-.46l-.09-.27-.27-.1a3,3,0,0,1-1.34-1.55,9.16,9.16,0,0,0-.69-1.1l-.17-.22-.28,0h-.08a.88.88,0,0,0-.43.1,1.05,1.05,0,0,0-.43-.18l-.51-.1-.19.48a7.63,7.63,0,0,0-.4,5l0,.19.14.13a1.1,1.1,0,0,0,.28.18,1.92,1.92,0,0,0,.51,1.57,14.64,14.64,0,0,0-2.79-.55l-1.8-.15c-1.4-.13-2.72-.25-4-.31h-.21a4.8,4.8,0,0,1-.55,0,21,21,0,0,0,.56-2.14c.43-1.9.83-3.69,2.25-4.31l.22-.1.1-.22a3,3,0,0,0,.21-.79,2.36,2.36,0,0,1,.12-.52l.27-.44-.38-.35c-.09-.08-.11-.13-.08-.51a3.45,3.45,0,0,0,0-.65l-.06-.67-.55.1a.4.4,0,0,1,0-.17l-.05-.33-.55-.29a11.29,11.29,0,0,1-3.23-2.2l-.1-.11-.14-.06a1,1,0,0,0-1,.1l-.12-.07a2.2,2.2,0,0,0-.46-.22l-.6-.2-.12.36a1.29,1.29,0,0,0-.82-.28h-.32l-.18.21-.38.35a2.62,2.62,0,0,0-.95,1.37,5.67,5.67,0,0,0-.12,1.49c0,.22,0,.44,0,.67v.37L32,140a1.42,1.42,0,0,1,.56.74c.07.14.14.29.23.45a2.1,2.1,0,0,0,.89,1.61c.24.2.37.32.42.5l.09.3.35.14.08,0a1.27,1.27,0,0,0,0,.38l0,.12.06.11c.43.68.08,1.69-.3,2.76-.11.32-.22.63-.31.94a.89.89,0,0,0,0,.54A3.4,3.4,0,0,1,34,149a4.22,4.22,0,0,0-.31.74,40.29,40.29,0,0,0-10.07,2,4.8,4.8,0,0,0-1.07.63l-.16.12a1.3,1.3,0,0,1-.26,0,2.46,2.46,0,0,0-.65.14A14.24,14.24,0,0,0,19.26,154l-.58.39a15.75,15.75,0,0,0-3.21,3l-.45.5h0a1,1,0,0,0-.55.4.89.89,0,0,0-.13.41,1.27,1.27,0,0,0-.48.37,6.27,6.27,0,0,0-.76,1.64l-.06.17a1.87,1.87,0,0,1-.26.41,1.67,1.67,0,0,0-.31.57,2,2,0,0,0,.11,1.17,1.82,1.82,0,0,0,.06.18,5.11,5.11,0,0,1-.06.63,2.91,2.91,0,0,0,.2,1.86,1.34,1.34,0,0,0,0,.3l0,.26.17.2a4,4,0,0,0,.78.63c.35.24.57.39.66.64l.2.43.45,0a2.16,2.16,0,0,1,1,.38,2.8,2.8,0,0,0,.78.34h.11v-.14a3,3,0,0,1,.26.32,3.38,3.38,0,0,0,.7.72,1.08,1.08,0,0,0,.6.16h.05a2.56,2.56,0,0,1,.33.33,2.2,2.2,0,0,0,.67.58,1.25,1.25,0,0,0,.68.05l.15,0a1.17,1.17,0,0,1,.3.17,1.63,1.63,0,0,0,.73.31,3.1,3.1,0,0,0,.83-.07c.34,0,.59-.09.79.05l.22.15.26-.05a6.45,6.45,0,0,0,2.2-1,5,5,0,0,1,1.31-.66l.57-.17-.1-.54a.33.33,0,0,0,0-.06,15.24,15.24,0,0,0,4-4.66,29.57,29.57,0,0,1,1.81-2.57l.1-.13,0-.16a1.67,1.67,0,0,1,.17-.48,2.32,2.32,0,0,0,.27-.78,1.44,1.44,0,0,0,.25-.29l0,0,.19-.09.08-.25a36,36,0,0,1,2.73-6.31,29.31,29.31,0,0,1,3.67-.21,45.6,45.6,0,0,1,8.06.74c.69,1.63.63,3.79.57,5.88,0,.72,0,1.46,0,2.19,0,.21,0,.44,0,.67a6.59,6.59,0,0,1,0,1.09.84.84,0,0,0-.3.57,1,1,0,0,0,.16.58h0a4.27,4.27,0,0,1-.17.56,4.28,4.28,0,0,0-.28,1.16,11.3,11.3,0,0,1-.33,2.08c-.1.48-.22,1-.28,1.52a2.55,2.55,0,0,0-.5,1.84c-.19.26-.36.52-.54.78a7.94,7.94,0,0,1-2.78,3l-1,.51.94.59.24.16a2.54,2.54,0,0,0,1.61.58h.29l.27,0,.17-.22.09-.13c0-.06.11-.16.18-.18h.06l.56.07.13-.55c.11-.48.27-.52.37-.55l.4-.1.07-.41a4.87,4.87,0,0,1,.6-1.61,7.23,7.23,0,0,0,.65-1.52h.25l.13-.46a.9.9,0,0,0,0-.57,20.43,20.43,0,0,0,1.85-7.09l.11-.77a2.09,2.09,0,0,1,.11-.43,3.29,3.29,0,0,0,.17-.83,2.82,2.82,0,0,1,.13-.82,4.2,4.2,0,0,0,.14-.69,1.17,1.17,0,0,0-.16-.6l0-.05a9.69,9.69,0,0,1,.18-1.49s0-.06,0-.1c1,1.2,2.06,2.35,3.14,3.44l.19.19h.24a1.29,1.29,0,0,0,.4.37l.06.05.11.08.13,0a5.34,5.34,0,0,1,1.3.64,5.44,5.44,0,0,0,2.77,1,1.18,1.18,0,0,0,.84.37h.06a3.46,3.46,0,0,0,.83-.18,3.08,3.08,0,0,1,1-.18h.14l.12-.06c.78-.4.72-1.27.68-1.85A2.12,2.12,0,0,1,64.92,161.61Zm-8.12-1.2a10.94,10.94,0,0,1-1.09-1.2c-.26-.34-.31-.6-.61-1a.7.7,0,0,0-.53-.27c-.27-.35-1.5-1.68-1-2a31.18,31.18,0,0,1,3,1.61c.55.32,1.12.66,1.7,1l0,.05,0,.51.46.15a6.59,6.59,0,0,1,2.53,2.39c.22.29.42.56.62.79-.09,0-.32.38-.4.39a2.69,2.69,0,0,1-.49,0,1.24,1.24,0,0,0-.57-.45l-.57-.12a2.39,2.39,0,0,1-.74-.2h0a1.46,1.46,0,0,0-.53-.59.85.85,0,0,0-.54-.08l-.08-.14a2,2,0,0,0-.5-.65,1,1,0,0,0-.63-.19ZM18.3,165a4.59,4.59,0,0,1,.2-1.61.92.92,0,0,1,.14-.13,1.64,1.64,0,0,0,.41-.5.84.84,0,0,0,0-.62l.06-.11.07-.13a16.52,16.52,0,0,1,3.35-3.42,23,23,0,0,1,5.79-3.38,4.79,4.79,0,0,1,.94-.23c.3-.06.62-.12.93-.21l.95-.31c.47-.15.92-.3,1.37-.42-1.75,5.71-4.11,11.27-8.94,14.24a3.29,3.29,0,0,1-1.46.33h0a4.9,4.9,0,0,1-3.25-1.37,5.86,5.86,0,0,0-.52-1.49l-.07-.16C18.3,165.34,18.3,165.18,18.3,165Z"/><path class="cls-1" d="M74.33,47.49a16.1,16.1,0,0,0-3.12-3.84c-.31-.31-.58-.59-.8-.83l-.07,0a11.07,11.07,0,0,0-4-.78c-.63,0-1.29-.09-1.94-.18a55.15,55.15,0,0,0-7.5-.49,98.79,98.79,0,0,0-24.67,3.62c-1.37-1.2-2.59-2.45-2.68-4.35l.33-.81A8.47,8.47,0,0,1,32,36.2l.1-.07,0-.12a3,3,0,0,0-.09-.39.22.22,0,0,1,0-.1l0,0a.51.51,0,0,0,.38.25.45.45,0,0,0,.29-.13l0-.08a2.15,2.15,0,0,1,.64-.77,2.13,2.13,0,0,0,.82-1.15l.19-.07a2.3,2.3,0,0,0,.48-.22l.09-.06v-.45a1.64,1.64,0,0,0,.93-.59,1.53,1.53,0,0,1,.54-.42s0,0,0,.06a.47.47,0,0,0,.51.24H37l0,0a1,1,0,0,0,.32-1.23,1.34,1.34,0,0,0,.74-.51.88.88,0,0,1,.71-.4H39l.07-.12a2.26,2.26,0,0,0,.21-.48.67.67,0,0,1,.28-.42l0,0,0,0a.65.65,0,0,0,.44.17h.07l0,0A10.74,10.74,0,0,0,42.63,26,15.84,15.84,0,0,1,44,23.9l.08-.1L44,23.68c-.13-.28.09-.71.31-1.13a1.9,1.9,0,0,0,.34-1.13.26.26,0,0,0-.12-.16.4.4,0,0,0,.12-.32.81.81,0,0,1,.18-.62l0-.06v-.08c0-.33-.08-.7-.12-1.1-.2-1.95-.45-4.36-1.56-5.27a3.13,3.13,0,0,0,0-.36.63.63,0,0,1,0-.49l.06-.11-.08-.11A27,27,0,0,1,40.24,8l0-.06C39.29,7,38.44,6,37.62,5.05a40.57,40.57,0,0,0-2.88-3.14l-.07,0a6,6,0,0,1-1.17-.72A5.63,5.63,0,0,0,31.39.07,3.81,3.81,0,0,0,30.64,0a2.55,2.55,0,0,0-2.53,1.46.73.73,0,0,0,0,.57,1.06,1.06,0,0,1,.07.44c0,.31-.05.61-.08.92-.13,1.18-.25,2.41.79,3.24l.09.08.12,0a1.72,1.72,0,0,0,.6-.48L29.84,6a7.08,7.08,0,0,1,.78,1.86l.21.63,0,.06a29.36,29.36,0,0,1,3.75,5.21l.05.1h.38l.06.1c1,1.51,2,3.08,1.9,4.77a35,35,0,0,1-4.77,7.35,13.75,13.75,0,0,0-3.57,4.19l-.16.06a.82.82,0,0,0-.34.14l-.06.07c-.21.43-.51.91-.82,1.42a14.47,14.47,0,0,0-1.81,3.65,4.17,4.17,0,0,0-.11.81,5.07,5.07,0,0,1-.1.77,4.89,4.89,0,0,1-.31.8,4.32,4.32,0,0,0-.32.89,8,8,0,0,0,.13,3A10.79,10.79,0,0,1,25,43.39v.06l.15.21c.21.29.42.59.62.9a17.28,17.28,0,0,0-5.48-.77,42.41,42.41,0,0,0-5.5.43h0c-2.91,1.07-5.45,2.11-7.12,4.16l0,.06c-.1.25-.18.51-.27.77a6.13,6.13,0,0,1-.75,1.7l0,0v0a7,7,0,0,0,.21,3.54l0,.05,0,0a2.68,2.68,0,0,0,2.16.66v-.21L9,55.3a6.12,6.12,0,0,1,.85,0,3.08,3.08,0,0,1,.74.25,3.5,3.5,0,0,0,.83.27,5.9,5.9,0,0,0,.86.06,14,14,0,0,0,5.55-1.54,5.68,5.68,0,0,0,.93-.6,2.22,2.22,0,0,1,1.57-.65l.22,0,0-.23c0-.37.26-.43.71-.51a3.21,3.21,0,0,0,.53-.15c.32-.14.65-.31,1-.49a8.67,8.67,0,0,1,2.41-1l.09,0,0-.07a3.69,3.69,0,0,1,2.47-1.25c.7.86.83,1.43.44,1.95l-.06.08,0,.1a6.2,6.2,0,0,0,.41,1.05l.24.53,0,0a.41.41,0,0,0-.19.48l0,0a4,4,0,0,1,.19,1.47c0,1,0,2.09,1,2.72a5.65,5.65,0,0,0,2.38.51,14.66,14.66,0,0,0,3.8-.71l.44-.12,0-.07a8.83,8.83,0,0,1,.83-1.08,4.89,4.89,0,0,0,1.3-2.24c.61-3.16-1.37-5-3-6.48l-.7-.66A17.67,17.67,0,0,1,41.79,45c4-1.32,9.07-1.49,13.58-1.63l1.33,0a27.62,27.62,0,0,0,3,.61c1.82.28,3.69.58,4.88,1.5a1.32,1.32,0,0,0-.25.87,3.87,3.87,0,0,1-.06.54l0,.11.08.08a.54.54,0,0,0,.59.09.65.65,0,0,1,.31,0A11.64,11.64,0,0,1,67,48.7c1.21,1.33,2.46,2.71,4.67,2.71h0a6.4,6.4,0,0,0,1.4-.16l.06,0,0,0C74,50.33,75.14,49.27,74.33,47.49Zm-38.4,5.13a1.19,1.19,0,0,1-.84.9l-.67-1c-.89-1.27-1.79-2.58-2.8-3.78a3.66,3.66,0,0,1,1.47.54.81.81,0,0,1,0,.11.54.54,0,0,0,.22.34,2.17,2.17,0,0,0,.6.22,1.43,1.43,0,0,1,.53.19A3.19,3.19,0,0,1,35.93,52.62ZM24.46,46.86c-1.92.59-3.75,1.29-5.53,2A61.21,61.21,0,0,1,11,51.43a2.32,2.32,0,0,1-.39-.62,1.51,1.51,0,0,1,.22-.44,2.43,2.43,0,0,0,.27-.56,7,7,0,0,0,1.3-1.12,7.6,7.6,0,0,1,1-.9,3,3,0,0,0,1.77-.69,4.09,4.09,0,0,1,1.06-.58,10.34,10.34,0,0,1,3-.41A23.11,23.11,0,0,1,24.46,46.86Z"/><path class="cls-1" d="M56.91,84C56.15,82.16,53.24,82,52,82a12.68,12.68,0,0,0-1.76.13,35.25,35.25,0,0,0-3.46.78,20.58,20.58,0,0,1-4.76.9A4.43,4.43,0,0,1,41,83.65a2.89,2.89,0,0,0,0-.29,6,6,0,0,1,0-2.31c0-.06.08-.12.16-.2a1.35,1.35,0,0,0,.35-.51,2,2,0,0,0,.08-.67,1.47,1.47,0,0,1,0-.39,3.09,3.09,0,0,1,.3-.47,6.41,6.41,0,0,0,.4-.61l.15-.27c.54-1,1-1.88,1.83-2.16a1.88,1.88,0,0,1,.61-.06,2.07,2.07,0,0,0,1-.18,1.12,1.12,0,0,0,.44-.53s.06-.13.12-.15l.41,0,0-.41a4.3,4.3,0,0,1,.6-2.37A5.6,5.6,0,0,0,48,70.19l0-.27-.22-.14a1.88,1.88,0,0,0-1.54-.24,5,5,0,0,0-1.24-1.82L45,67.63l-.13,0a3.13,3.13,0,0,0-3.09,1,6.24,6.24,0,0,1-.82-.59l-.51-.39a.71.71,0,0,0-.41-.13,1,1,0,0,0-.69.39l-.12.13-.42-.25-.15.51a5,5,0,0,1-.46,1,6,6,0,0,0-.48,1l-.05.14.05.14a5.77,5.77,0,0,1,.24,1.3,4.66,4.66,0,0,0,.31,1.41c-1.53,3.37-3.26,8.19-1.37,12l0,.07,0,.05a5.09,5.09,0,0,0,3.72,1.43h0a18.23,18.23,0,0,0,5.87-1.45,21.34,21.34,0,0,1,3.74-1.12h.07l.72,0,.82,0c1.47,0,2.13.31,2.25,1a5.92,5.92,0,0,1-.51,2.5,7.46,7.46,0,0,1-1,1.64,9.46,9.46,0,0,0-1,1.6c-.13.28-.27.52-.41.76a2.75,2.75,0,0,0-.57,1.88l.07.52.5-.19a7,7,0,0,0,3.18-2.83,12,12,0,0,1,1.47-1.76l.11-.11v-.16a5.88,5.88,0,0,1,.57-1.75A3.92,3.92,0,0,0,56.91,84Z"/><path class="cls-2" d="M54.4,117.43c-3.5-2.62-8.47-3.16-13.63-3.88-3.68.14-7.12-.39-11,1a53.1,53.1,0,0,0-1.05-7.66c-.85-1.21-1.56-2.56-2.41-3.78a4.09,4.09,0,0,1-1.47-1.26,13.3,13.3,0,0,0-3.88-1.25,27.8,27.8,0,0,0-3.88.52c-.68-.41-.28-1.12-.21-2.1a18.94,18.94,0,0,1,.53-4.4c.13-.42.51-.75.63-1.16,0,0-.18-.17-.11-.31s.36-.16.42-.31,0-.6.11-.84a8.33,8.33,0,0,1,.73-1c.09-.15,0-.3.1-.42s.64-.24.84-.42c.41-.35.68-1,1.16-1.15H22a2.22,2.22,0,0,1-.1-1.15c-.64-.31-1.37-.52-1.68-1.16-.6,0-1.33.37-2,.11-4.45,3-5.29,9.28-5.35,15.62-1.74,1.73-4.24,2.69-5.56,4.83-.14,0-.2-.15-.42-.11-.24.23.09.36,0,.74-1.6.65-.94,2.91-.11,3.88a3.53,3.53,0,0,1,1.68,1c.86,0,1.51-.13,1.78.42a3.86,3.86,0,0,1,2.1-.42c.74-.59,1.05-1,1.68-1.58,1.29.6,1.51,2.27,2.41,3.26a16.73,16.73,0,0,0,4.51,2.62c.86.32,2.45.89,3,0a3.09,3.09,0,0,0-1.57-1c-1-1.54-2.81-2.77-2.94-4.82-.95-.52-.94-1.8-1.36-2.62a6,6,0,0,1,4.61-1,5.86,5.86,0,0,1,1.79,2.2c1.3,3.88.64,8.3-.31,12-.77,2.17-1.95,3.93-2.63,6.19-.77.45-1,1.41-1.68,2-.48-4.59.13-7.62-.2-11.54-1.23,3.6-1.59,8.77-2,12.48.12.16.34.22.32.53-.21,0,0,.48-.42.31.6.87.12,2.19,1.36,2.41a2.39,2.39,0,0,1,1.36-.31,2.69,2.69,0,0,1,1.58-1.68c0-.32.23-.47.31-.73s.39-.11.52-.21a45.42,45.42,0,0,0,2.84-4.2,28.09,28.09,0,0,1,2.1-4.09c.27-2.33,1.75-4.87,1.78-7.45,2,0,4.18-.62,6.08-.62.34,0,.64.31.95.31s.52-.3.73-.31a16.08,16.08,0,0,1,3,.2c1.54.2,3.77.44,5.56.84,1.08.25,2,.94,3.25,1.05.36.65,1.65.39,1.68,1.36-.4.1-.65.34-.53.95,1.58.82,4.19.31,4.41-1.36A.51.51,0,0,1,54.4,117.43Z"/><path class="cls-3" d="M12.94,150.75a1.67,1.67,0,0,1-.5,1.15,1.64,1.64,0,0,1-1.15.41c-.69,0-.69.08-1.38.08H8.53c-.69,0-.69,0-1.37,0s-.69,0-1.38,0-.69.08-1.38.08-.69-.08-1.38-.08-.69.07-1.38.07a1.6,1.6,0,0,1-1.12-.5A1.62,1.62,0,0,1,0,150.75c0-.69.06-.69.06-1.38s0-.69,0-1.38S0,147.3,0,146.61s0-.69,0-1.37v-2.76c0-.69.05-.69.05-1.38A1.5,1.5,0,0,1,.55,140a1.59,1.59,0,0,1,1.09-.56c.69,0,.69.06,1.38.06s.69,0,1.38,0H5.78c.69,0,.69,0,1.37,0s.69,0,1.38,0,.69,0,1.38,0h1.38a1.68,1.68,0,0,1,1.56,1.59c0,.69.06.69.06,1.38v1.38c0,.69-.08.69-.08,1.37s.07.69.07,1.38,0,.69,0,1.38,0,.69,0,1.38S12.94,150.06,12.94,150.75Zm-3.15-10.5c0,.19-.16.23-.13.39-.28-.18-.22.32-.52.26A8,8,0,0,1,9,142c.56.4,1.25.18,1.91.48.16-.07.24-.21.43-.26,0-.21.32-.66,0-.87.29-.21.05-.84-.3-.82a.47.47,0,0,0-.74-.22C10.13,140.11,10.06,140.24,9.79,140.25Zm-2,1.17c0-.45,0-.65-.26-.83-.19.2-.79,0-.91.27,0,.1.08.09,0,.21-.2,0-.2.15-.35.18,0,.4-.33.64-.22,1-.1,0-.11.15-.22.18a23.39,23.39,0,0,1-.56,2.68c-.81,0-1.49-.32-2.38-.34-.1,0-.1-.16-.22-.17-.09.17-.29,0-.44,0a.44.44,0,0,1-.43.21c0,.25.06.37,0,.61A1.9,1.9,0,0,0,3,146.1c0,.06,0,.06,0,.13.64.16,1.24.68,2.12.61.26,1.7.39,3.19,1.26,4.38.24,0,.47.08.74.09a.54.54,0,0,0,.56.3c-.06-.25.09-.29.13-.43s-.17-.17-.08-.39c-.26,0-.51-.1-.61-.31s-.16-.89-.22-1.17,0-.54,0-.78c0-.06-.13-.15-.13-.21a5.54,5.54,0,0,1,.13-1.18.82.82,0,0,1,.65-.39c.34-.88,1.72-.71,2.3-1.34a.43.43,0,0,1,0-.35c-.08-.06-.27,0-.22-.21a3.3,3.3,0,0,1-2.47.34c.24-1.44.58-2.6.83-3.68C7.84,141.5,7.78,141.48,7.75,141.42Zm-4.59-.09a1,1,0,0,0-.83.13,3.41,3.41,0,0,1-.61-.08c-.23.48-1.22.66-.9,1.17.22.36.42.25.51.69.4.09.82.17,1,.52.73,0,1.32.16,1.56-.52-.13-.18,0-.41.09-.52-.12-.17,0-.49,0-.78-.24-.1-.21-.48-.6-.52C3.45,141.29,3.27,141.19,3.16,141.33Zm5.46,6.12c-.52,0-.86.55-.43.91,0,.09-.11.12-.09.26.16-.06.08.12.22.09s0-.15.13-.13a.92.92,0,0,1,.39.39c.08-.08.27-.05.39-.09,0,.19.07.24.21.26s.09-.23.27-.22c0,.27.27.27.47.35a.33.33,0,0,1,.18-.17.85.85,0,0,0,1.25-.52c-.34-.13,0-.43-.08-.74-.25,0-.47,0-.44-.26a.4.4,0,0,0-.34,0c0-.27-.27-.2-.52-.18,0-.05-.06-.08-.05-.17C9.68,147.29,9.1,147.59,8.62,147.45Zm-6.85,1.3c-.16.35-.24.78-.61.91V150c.29,0,.2.34.39.43.28-.18.34.13.65,0a.32.32,0,0,0,0,.21c.31.12.34-.14.61,0,.07-.62.61-.77.31-1.3-.05-.16.1-.12.08-.26C2.93,148.41,2.3,148.7,1.77,148.75Z"/><path class="cls-4" d="M44,107.79a3.74,3.74,0,0,1-.49,0,1.27,1.27,0,0,1-.07,1,1.65,1.65,0,0,1-1.49.63H38.39a1.63,1.63,0,0,1-1.49-.63,1.61,1.61,0,0,1,.2-1.6L38.9,104a1.62,1.62,0,0,1,1.28-1,1.62,1.62,0,0,1,1.29,1l.68,1.18a2.91,2.91,0,0,1,.18-.35l.36-.63-.39-.68a2.27,2.27,0,0,0-4.24,0l-1.79,3.11a2.27,2.27,0,0,0,2.12,3.67H42a2.51,2.51,0,0,0,2.32-1.11,2.11,2.11,0,0,0,.23-1.41Z"/><path class="cls-2" d="M42.29,104.9H37.68v5.41h5v-2.84C41.87,107,41.68,106,42.29,104.9Z"/><path class="cls-5" d="M47.62,108.27H44a2.27,2.27,0,0,1-2.12-3.67l1.8-3.12a2.27,2.27,0,0,1,4.24,0l1.79,3.12a2.27,2.27,0,0,1-2.12,3.67ZM45.83,101a1.62,1.62,0,0,0-1.29,1l-1.79,3.11a1.61,1.61,0,0,0-.21,1.6,1.64,1.64,0,0,0,1.49.62h3.59a1.33,1.33,0,0,0,1.29-2.22L47.11,102A1.62,1.62,0,0,0,45.83,101Z"/><rect class="cls-1" x="43.33" y="102.86" width="5" height="5.41"/></g></g></svg>