<svg xmlns="http://www.w3.org/2000/svg" viewBox="0 0 19.69 16"><defs><style>.cls-1{fill:#fff;opacity:0.8;}</style></defs><g id="レイヤー_2" data-name="レイヤー 2"><g id="レイヤー_1-2" data-name="レイヤー 1"><path class="cls-1" d="M6.19,16A11.41,11.41,0,0,0,17.68,4.51c0-.18,0-.35,0-.52a8.23,8.23,0,0,0,2-2.1,8,8,0,0,1-2.32.64A4.05,4.05,0,0,0,19.14.3a8.34,8.34,0,0,1-2.56,1A4,4,0,0,0,9.7,5,11.49,11.49,0,0,1,1.37.74,4,4,0,0,0,2.62,6.13a4.07,4.07,0,0,1-1.83-.5v0A4,4,0,0,0,4,9.64,4.17,4.17,0,0,1,3,9.78a4.67,4.67,0,0,1-.76-.07A4,4,0,0,0,6,12.51a8.05,8.05,0,0,1-5,1.73c-.32,0-.64,0-1-.05A11.48,11.48,0,0,0,6.19,16"/></g></g></svg>