<svg xmlns="http://www.w3.org/2000/svg" viewBox="0 0 24.61 20"><defs><style>.cls-1{opacity:0.8;}</style></defs><g id="レイヤー_2" data-name="レイヤー 2"><g id="menu_open"><path class="cls-1" d="M7.74,20A14.26,14.26,0,0,0,22.1,5.63c0-.21,0-.43,0-.65a10.25,10.25,0,0,0,2.52-2.61,10.12,10.12,0,0,1-2.9.79A5.06,5.06,0,0,0,23.93.37,10.23,10.23,0,0,1,20.72,1.6,5,5,0,0,0,12,5.05a4.89,4.89,0,0,0,.13,1.15A14.32,14.32,0,0,1,1.71.92,5.1,5.1,0,0,0,1,3.46a5,5,0,0,0,2.25,4.2A4.93,4.93,0,0,1,1,7V7.1a5.06,5.06,0,0,0,4.05,5,5.33,5.33,0,0,1-1.33.18,4.94,4.94,0,0,1-1-.1,5.05,5.05,0,0,0,4.72,3.51A10.12,10.12,0,0,1,1.2,17.8,9.66,9.66,0,0,1,0,17.73,14.31,14.31,0,0,0,7.74,20"/></g></g></svg>