<svg xmlns="http://www.w3.org/2000/svg" viewBox="0 0 16 16"><defs><style>.cls-1{opacity:0.8;}.cls-2{fill:#fff;}</style></defs><g id="レイヤー_2" data-name="レイヤー 2"><g id="レイヤー_1-2" data-name="レイヤー 1"><g class="cls-1"><path class="cls-2" d="M11.45,16H4.55A4.55,4.55,0,0,1,0,11.45V4.55A4.55,4.55,0,0,1,4.55,0h6.9A4.55,4.55,0,0,1,16,4.55v6.9A4.55,4.55,0,0,1,11.45,16ZM4.55,1.37A3.19,3.19,0,0,0,1.37,4.55v6.9a3.19,3.19,0,0,0,3.18,3.18h6.9a3.19,3.19,0,0,0,3.18-3.18V4.55a3.19,3.19,0,0,0-3.18-3.18Z"/><path class="cls-2" d="M8,12.1A4.1,4.1,0,1,1,12.1,8,4.11,4.11,0,0,1,8,12.1ZM8,5.27A2.73,2.73,0,1,0,10.73,8,2.74,2.74,0,0,0,8,5.27Z"/><path class="cls-2" d="M13.26,3.67a1,1,0,1,1-1-1A1,1,0,0,1,13.26,3.67Z"/></g></g></g></svg>