<svg xmlns="http://www.w3.org/2000/svg" viewBox="0 0 20 20"><defs><style>.cls-1{opacity:0.8;}</style></defs><g id="レイヤー_2" data-name="レイヤー 2"><g id="menu_open"><g class="cls-1"><path d="M14.31,20H5.69A5.69,5.69,0,0,1,0,14.31V5.69A5.69,5.69,0,0,1,5.69,0h8.62A5.69,5.69,0,0,1,20,5.69v8.62A5.69,5.69,0,0,1,14.31,20ZM5.69,1.71a4,4,0,0,0-4,4v8.62a4,4,0,0,0,4,4h8.62a4,4,0,0,0,4-4V5.69a4,4,0,0,0-4-4Z"/><path d="M10,15.12A5.12,5.12,0,1,1,15.12,10,5.13,5.13,0,0,1,10,15.12Zm0-8.53A3.41,3.41,0,1,0,13.41,10,3.41,3.41,0,0,0,10,6.59Z"/><path d="M16.57,4.59a1.23,1.23,0,1,1-1.23-1.23A1.23,1.23,0,0,1,16.57,4.59Z"/></g></g></g></svg>