<svg xmlns="http://www.w3.org/2000/svg" viewBox="0 0 80 80"><defs><style>.cls-1{fill:#fff;}.cls-2,.cls-3{fill:#231815;}.cls-3,.cls-4,.cls-6{fill-rule:evenodd;}.cls-4,.cls-7{fill:#ff5d45;}.cls-5{fill:#61874e;}</style></defs><g id="レイヤー_2" data-name="レイヤー 2"><g id="レイヤー_1-2" data-name="レイヤー 1"><rect class="cls-1" width="80" height="80"/><path class="cls-2" d="M27.61,31.52c.88.23,1.1.71,1.1.78s0,.07-.21.17a1.31,1.31,0,0,1-.31.13c-.05,0-.07-.05-.08-.08a1.91,1.91,0,0,0-.21-.43l-.7.08v1.54a2.66,2.66,0,0,1-.46.09c-.08,0-.08,0-.08-.11s0-.73,0-.85a1.65,1.65,0,0,0-.55.35,2.9,2.9,0,0,1-.53.51l-.42-.39a1.94,1.94,0,0,0,1-.94l.24.05a2.66,2.66,0,0,1-.12.39h0a3.66,3.66,0,0,1,.38-.17l0-.41a4.89,4.89,0,0,0-.94.19.41.41,0,0,0-.28.2h-.14c0-.08-.1-.47-.1-.51s.09-.1.16-.1l1,0a1.46,1.46,0,0,0,.23-.22,2.42,2.42,0,0,0-.73-.27c-.05,0-.18-.05-.18-.19s.06-.13.14-.19a2.2,2.2,0,0,0,.64-.91.08.08,0,0,0,0-.07l.06-.07c.15,0,.69.22.69.3s-.69.63-.9.78a1.82,1.82,0,0,1,.5.43c.2-.22.58-.68.56-.88l0-.05c.36.12.6.22.63.23a.09.09,0,0,1,0,.07,6.72,6.72,0,0,1-1.35,1l1.06-.05a1.43,1.43,0,0,0-.29-.28Zm-.12,1a1.88,1.88,0,0,1,1.11.62.29.29,0,0,1,.08.14s0,.07-.34.27c-.13.09-.15.09-.18.09s0,0-.09-.12a2.28,2.28,0,0,0-.71-.89Z"/><path class="cls-2" d="M31.52,32.4a12.06,12.06,0,0,1,1.68-.2c.25,0,.55.08.55.46a1.71,1.71,0,0,1-.36,1,.74.74,0,0,1-.53.23c-.09-.25-.23-.29-.49-.38l0-.11c.08,0,.42.09.48.09s.27-.74.27-.81-.07-.24-.2-.24a6.61,6.61,0,0,0-1.06.1.06.06,0,0,1,0,0c0,.06,0,.19-.09.64l.41,0c0-.12,0-.36,0-.43s0-.09-.06-.1v-.07h.35c.15,0,.24,0,.24.09a4,4,0,0,1-.24.69h-.17a5.47,5.47,0,0,0-1.37.22v0a2.35,2.35,0,0,1-.37.09s-.06,0-.06-.07-.05-.52-.06-.59c0-.38,0-.39-.1-.4v-.08l.49,0c.12,0,.13,0,.13.13s0,.43,0,.64l.38-.06c0-.07,0-.32,0-.54l-.22,0c-.09,0-.1,0-.1-.13S31,31.14,31,31l-.24.14-.11-.1c.52-.39.76-.77.76-.9s0,0,0-.07l0-.07.58.13c.07,0,.14,0,.14.09s-.09.14-.16.19-.25.17-.59.37h.06a11.2,11.2,0,0,1,1.42-.26c.13,0,.39,0,.39.29a7.39,7.39,0,0,1-.14.82,12,12,0,0,0-1.58.17V32c.37-.05,1.71-.2,2.17-.22v.19c-.43,0-1.26.12-1.5.16a2.11,2.11,0,0,0-.68.16Zm0-1.25c.15,0,.6-.09.9-.12v.15c-.68.11-.75.12-.92.23v.16l1.06-.13c0-.35,0-.45,0-.52s0-.16-.12-.16a5.42,5.42,0,0,0-1,.18Z"/><path class="cls-2" d="M36.33,30.4l.62.08a.12.12,0,0,1,.11.13c0,.05-.05.31-.06.37a1.67,1.67,0,0,0,0,.24,1.8,1.8,0,0,0,.6-.28l0,0c-.09.08-.1.1-.15.29s-.33.2-.49.26c0,0,0,.42,0,.49A2.86,2.86,0,0,1,38,31.75a.65.65,0,0,1,.74.66c0,.5-.35,1-.78,1s-.56-.37-.69-.74l.1,0a.55.55,0,0,0,.47.35c.27,0,.4-.36.4-.63a.34.34,0,0,0-.37-.39,2.26,2.26,0,0,0-.94.31c0,.54,0,.69,0,.82s0,.22,0,.28a.4.4,0,0,1-.24.12s0,0-.1-.12a.41.41,0,0,0-.42-.16.27.27,0,0,1-.14,0,.19.19,0,0,1-.2-.21c0-.24.31-.57.75-.83v-.54a3,3,0,0,1-.53.11c-.08,0-.14,0-.29-.43l.06,0a.28.28,0,0,0,.22.09,2.76,2.76,0,0,0,.53-.08c0-.16,0-.69,0-.75s-.09-.08-.15-.1Zm-.12,2.5a.16.16,0,0,0,.08.12c.05,0,.17.07.2.07s0-.05,0-.07V32.5A1.22,1.22,0,0,0,36.21,32.9Zm1.56-1.44a2.55,2.55,0,0,0,.36-.8.11.11,0,0,0,0-.09l0-.05.54.21q.09,0,.09.09c0,.12-.61.56-.85.72Z"/><path class="cls-2" d="M41.57,30.35l.54,0c.13,0,.15.07.15.19a4.91,4.91,0,0,1,0,.53,1.7,1.7,0,0,0,.48-.17l0,.11a.67.67,0,0,0-.25.22c0,.05-.09.07-.3.13A3.88,3.88,0,0,1,42,32a.26.26,0,0,1,0,.17c0,.12-.13.65-.13.76s0,.29.41.29a1.19,1.19,0,0,0,.92-.41,1.61,1.61,0,0,0,.31-.78l.15.08a1.37,1.37,0,0,1-1.45,1.52c-.74,0-.8-.48-.8-.66s0-.08-.07-.1c-.42-.13-.49-.17-.49-.38a.67.67,0,0,1,.76-.61,3.13,3.13,0,0,0,0-.41,5.74,5.74,0,0,1-.65.13.17.17,0,0,1-.17-.12c0-.06-.11-.28-.14-.37l.06,0c.07.1.12.13.32.13s.47,0,.6,0c0-.5,0-.65-.17-.68Zm-.11,1.77a.33.33,0,0,0-.31.28c0,.17.35.21.37.21s0,0,0,0,0-.32.06-.38A.24.24,0,0,0,41.46,32.12Zm1.92-.49a4.07,4.07,0,0,0,.1-.74c0-.13,0-.17-.13-.2l0-.1.56.08c.09,0,.16,0,.16.12a2.43,2.43,0,0,1-.52.9Z"/><path class="cls-2" d="M47.51,33.92a8.07,8.07,0,0,0,.11-1.36.44.44,0,0,1-.37.16.54.54,0,0,1-.56-.59.66.66,0,0,1,.73-.67,1.17,1.17,0,0,1,.23,0c0-.06,0-.29,0-.32-.29,0-1.21.17-1.45.17s-.15,0-.33-.58l.08-.05c.13.15.24.2.78.2.27,0,.64,0,.91,0,0-.56,0-.65-.22-.68v-.07c.16,0,.43-.05.56-.05s.21.16.21.31,0,.31,0,.44a6.57,6.57,0,0,0,1-.15,2.26,2.26,0,0,1-.11.22,7.7,7.7,0,0,1-.9.2c0,.2,0,.57-.06.74a.61.61,0,0,1,.09.32,3.16,3.16,0,0,1-.53,1.72Zm-.17-2.25c-.18,0-.3.21-.3.42s.13.3.25.3.25,0,.29-.36C47.59,31.94,47.58,31.67,47.34,31.67Z"/><path class="cls-2" d="M51.05,30.92c.07.11.15.16.36.16a1.31,1.31,0,0,0,1-.32l.26.24a.11.11,0,0,1,0,.08s0,.05-.12.07l-.38.16a3.11,3.11,0,0,0-.31,1.25c0,.41.22.54.38.54s.59-.22,1.12-1.32a1.89,1.89,0,0,1-.17-.49,3.94,3.94,0,0,1-.09-.55c0-.06,0-.09.09-.13l.48-.21,0,.1c-.06.05-.09.08-.09.27a2.73,2.73,0,0,0,.79,1.81l-.15.17a2.35,2.35,0,0,1-.75-.71c-.25.71-.57,1.59-1.23,1.59a.87.87,0,0,1-.83-.88,3.46,3.46,0,0,1,.42-1.36,1.73,1.73,0,0,1-.47.15.19.19,0,0,1-.17-.1A2.16,2.16,0,0,1,51,31Zm3.26,0c0-.09.12-.44.12-.52a0,0,0,0,0,0,0,2.29,2.29,0,0,0-.24.15c0,.06,0,.19,0,.27l-.22.1a1.69,1.69,0,0,0-.09-.49s-.05,0-.08,0v-.07a3.68,3.68,0,0,1,.37-.11c.08,0,.07.06.06.19a.75.75,0,0,1,.49-.23c.13,0,.17.08.17.15a2.34,2.34,0,0,1-.33.64Z"/><path class="cls-2" d="M46.75,50h1l0,.39-.12,0c0-.19-.05-.29-.28-.29s-.11,0-.12.06a1.85,1.85,0,0,0,0,.24v.31c.31,0,.33,0,.34-.18h.11a1.93,1.93,0,0,0,0,.24,2,2,0,0,0,0,.24h-.11c0-.07,0-.13-.05-.15s-.09,0-.29,0v.36c0,.21,0,.22.17.22v.1h-.71v-.1c.07,0,.13,0,.15-.08a2.62,2.62,0,0,0,0-.29v-.65c0-.29,0-.31-.16-.31Z"/><path class="cls-2" d="M48.3,50H49v.1c-.09,0-.14,0-.15.1s0,.34,0,.42c0,.29,0,.4,0,.5a.36.36,0,0,0,.12.23.3.3,0,0,0,.19,0,.26.26,0,0,0,.17,0,.32.32,0,0,0,.13-.26,2.77,2.77,0,0,0,0-.39c0-.28,0-.47,0-.53s-.06-.06-.15-.07V50h.51v.1c-.12,0-.16,0-.16.14s0,.24,0,.67a.65.65,0,0,1-.17.53.6.6,0,0,1-.42.12.61.61,0,0,1-.41-.11c-.17-.12-.18-.29-.18-.59v-.51c0-.21,0-.24-.16-.25Z"/><path class="cls-2" d="M51.64,51.4a1.36,1.36,0,0,1-.57.13.72.72,0,0,1-.77-.79.76.76,0,0,1,.81-.81,2.29,2.29,0,0,1,.55.09c0,.19,0,.24,0,.42h-.12a.39.39,0,0,0-.39-.39.4.4,0,0,0-.32.14.88.88,0,0,0-.15.53c0,.34.13.66.47.66s.39-.27.42-.44h.12Z"/><path class="cls-2" d="M52.2,50h.69v.1c-.16,0-.16,0-.16.28v.32h.53v-.28c0-.3,0-.31-.16-.31V50h.69v.1c-.09,0-.14,0-.16.08s0,.26,0,.32V51c0,.33,0,.36.16.36v.1H53.1v-.1c.15,0,.15,0,.16-.3v-.32h-.53v.31c0,.28,0,.31.16.31v.1H52.2v-.1c.07,0,.11,0,.14-.06s0,0,0-.36v-.52c0-.37,0-.38-.16-.38Z"/><path class="cls-2" d="M54.28,50H55v.11c-.09,0-.14,0-.15.11a2.09,2.09,0,0,0,0,.26V51c0,.37,0,.4.16.4v.1h-.7v-.1c.16,0,.16,0,.17-.33v-.65c0-.33,0-.35-.17-.35Z"/><path class="cls-2" d="M57,50.91c-.12,0-.12.05-.12.27v.24a1.73,1.73,0,0,1-.54.1.77.77,0,0,1-.81-.81.75.75,0,0,1,.79-.78,1.74,1.74,0,0,1,.55.1c0,.17,0,.22,0,.42h-.12a.57.57,0,0,0-.08-.24.36.36,0,0,0-.31-.16.4.4,0,0,0-.31.14.84.84,0,0,0-.14.51,1.91,1.91,0,0,0,0,.32c.08.3.28.37.39.37s.17-.11.17-.19c0-.27,0-.29-.16-.29h0v-.11H57Z"/><path class="cls-2" d="M58.36,49.92c0,.1,0,.15.09.29l.3.92c.08.24.09.25.2.26v.1h-.66v-.1c.05,0,.12,0,.12-.08a1.56,1.56,0,0,0-.06-.2l-.05-.17h-.4a1.87,1.87,0,0,0-.11.36c0,.09.08.09.12.08v.11h-.49v-.1c.11,0,.13,0,.22-.26l.1-.24.12-.3.15-.37.07-.22Zm-.24.41-.18.49h.32Z"/><path class="cls-2" d="M60.66,50.32c.08-.17.09-.21.15-.36h.46v.1c-.13,0-.14,0-.14.32v.67c0,.32,0,.34.16.34v.1h-.69v-.1c.17,0,.18,0,.18-.34v-.64l-.14.31-.25.56-.1.21h-.12a1.8,1.8,0,0,1-.08-.21l-.28-.63-.1-.23v.72c0,.22,0,.24.14.25v.1h-.48v-.1c.16,0,.16,0,.18-.34l0-.61v-.21c0-.15,0-.16-.14-.17V50h.46c0,.1.05.1.09.2l.19.44.18.41.17-.39Z"/><path class="cls-2" d="M61.8,50h.69v.11c-.09,0-.14,0-.15.11s0,.2,0,.26V51c0,.37,0,.4.17.4v.1h-.7v-.1c.16,0,.16,0,.16-.33v-.65c0-.33,0-.35-.16-.35Z"/><path class="cls-2" d="M56.28,35.43H23.72v-7H56.28Zm-32.22-.35H55.94V28.82H24.06Z"/><path class="cls-2" d="M71,44.46l0-.11-.08-.09a2.93,2.93,0,0,1-.31-.49l-.14-.25,0-.05,0,0a.68.68,0,0,1-.35-.34l0-.1-.1,0a.53.53,0,0,1-.37-.28l0-.07-.07,0a1,1,0,0,1-.47-.34l-.08-.12-.14,0s-.16,0-.22-.14l0-.08-.08,0a1.49,1.49,0,0,1-.5-.21,2.47,2.47,0,0,0-.66-.27.5.5,0,0,0-.16-.14L67,41.25a2.1,2.1,0,0,0-.08-.7,1.91,1.91,0,0,1-.08-.54l0-.16-.14-.06h0a.14.14,0,0,1,0-.07,1.13,1.13,0,0,0,0-.15l0-.09-.09,0a1,1,0,0,1-.43-.5,2.74,2.74,0,0,0-.23-.36l0-.07h-.12a.33.33,0,0,0-.14,0,.26.26,0,0,0-.13-.06l-.17,0-.06.15A2.52,2.52,0,0,0,65,40.2l0,.06,0,.05.09,0a.63.63,0,0,0,.17.51,4.91,4.91,0,0,0-.9-.17l-.59-.05c-.45,0-.87-.08-1.29-.1h-.06l-.18,0a6.3,6.3,0,0,0,.18-.69c.14-.61.27-1.19.73-1.39l.07,0,0-.07a1.45,1.45,0,0,0,.07-.26.61.61,0,0,1,0-.17l.08-.14-.12-.11s0-.05,0-.17a1.46,1.46,0,0,0,0-.21l0-.21-.18,0s0,0,0-.06V37l-.18-.1a3.47,3.47,0,0,1-1-.71l0,0,0,0a.34.34,0,0,0-.33,0l0,0L61.36,36,61.17,36l0,.12a.4.4,0,0,0-.27-.1h-.1l-.06.06a1.36,1.36,0,0,1-.12.12.82.82,0,0,0-.31.44,1.54,1.54,0,0,0,0,.48v.34l.11.06c.09,0,.12.12.18.24s0,.09.07.14a.66.66,0,0,0,.29.52c.07.07.12.11.13.17l0,.09.12.05h0a.57.57,0,0,0,0,.12v0l0,0c.13.22,0,.55-.1.9a1.76,1.76,0,0,0-.1.3.24.24,0,0,0,0,.17.37.37,0,0,1-.05.11,1.73,1.73,0,0,0-.1.24,13.48,13.48,0,0,0-3.26.65,1.23,1.23,0,0,0-.34.21l-.05,0-.09,0a.59.59,0,0,0-.21,0,4.28,4.28,0,0,0-.7.43l-.19.12a5.43,5.43,0,0,0-1,1l-.14.16h0a.27.27,0,0,0-.17.13.24.24,0,0,0,0,.13.56.56,0,0,0-.16.12,2.32,2.32,0,0,0-.25.53l0,.06a.46.46,0,0,1-.08.13.53.53,0,0,0-.07.56.21.21,0,0,1,0,.06,1.41,1.41,0,0,1,0,.2.94.94,0,0,0,.06.61s0,.06,0,.09V46l0,.06a1.55,1.55,0,0,0,.25.21c.12.07.19.12.22.2l.06.14h.15a.72.72,0,0,1,.33.13,1.36,1.36,0,0,0,.25.11h0v0a.45.45,0,0,1,.09.1,1,1,0,0,0,.22.23.33.33,0,0,0,.2.05h0a1.13,1.13,0,0,1,.11.11.67.67,0,0,0,.22.19.48.48,0,0,0,.21,0h.05s.06,0,.1.05a.53.53,0,0,0,.24.1,1.18,1.18,0,0,0,.27,0,.3.3,0,0,1,.25,0l.07,0h.08a2.38,2.38,0,0,0,.72-.32,1.31,1.31,0,0,1,.42-.22l.18,0,0-.18v0a4.75,4.75,0,0,0,1.29-1.5,7.27,7.27,0,0,1,.59-.83l0,0V44.4a.53.53,0,0,1,.05-.15.86.86,0,0,0,.09-.26A.57.57,0,0,0,61,43.9h0l.06,0,0-.08a11.31,11.31,0,0,1,.88-2,8.57,8.57,0,0,1,1.19-.07,15.24,15.24,0,0,1,2.6.24,4.65,4.65,0,0,1,.19,1.9c0,.23,0,.47,0,.71v.22a2.1,2.1,0,0,1,0,.35.23.23,0,0,0-.1.18.29.29,0,0,0,0,.19h0a1.67,1.67,0,0,1,0,.18,1.24,1.24,0,0,0-.09.38,3.61,3.61,0,0,1-.11.67c0,.16-.07.32-.09.49a.8.8,0,0,0-.16.59l-.18.26a2.66,2.66,0,0,1-.89,1l-.32.16.3.19.08,0a.8.8,0,0,0,.52.19h.18l.06-.07,0,0s0-.05,0-.05h0l.18,0,0-.18c0-.15.08-.17.12-.17l.13,0,0-.13a1.55,1.55,0,0,1,.19-.52,1.85,1.85,0,0,0,.21-.49h.08l0-.15a.22.22,0,0,0,0-.18,6.74,6.74,0,0,0,.6-2.3l0-.24a.74.74,0,0,1,0-.14,1.08,1.08,0,0,0,.05-.27,1.64,1.64,0,0,1,0-.27,1.43,1.43,0,0,0,0-.22.32.32,0,0,0,0-.19v0a3,3,0,0,1,.06-.48v0c.34.38.67.76,1,1.11l.06.06h.08a.45.45,0,0,0,.12.12h0l0,0h0a1.64,1.64,0,0,1,.42.21,1.81,1.81,0,0,0,.9.33.34.34,0,0,0,.27.12h0a1.22,1.22,0,0,0,.27-.06.93.93,0,0,1,.31-.06h0l0,0a.53.53,0,0,0,.22-.6A1.32,1.32,0,0,1,71,44.46Zm-2.62-.39a3.28,3.28,0,0,1-.35-.38,3.28,3.28,0,0,0-.2-.31.22.22,0,0,0-.17-.09c-.09-.11-.49-.54-.33-.65.33.15.64.33,1,.52l.55.31v.18l.15.05c.31.1.59.48.82.78a2.73,2.73,0,0,0,.2.25s-.11.12-.13.13h-.16a.35.35,0,0,0-.19-.14l-.18,0a1.09,1.09,0,0,1-.24-.07h0a.44.44,0,0,0-.17-.19.31.31,0,0,0-.18,0s0,0,0,0a.66.66,0,0,0-.17-.21.35.35,0,0,0-.2-.07ZM55.91,45.56A1.43,1.43,0,0,1,56,45L56,45a.75.75,0,0,0,.13-.16.28.28,0,0,0,0-.2l0,0,0,0a5.14,5.14,0,0,1,1.08-1.1,7.25,7.25,0,0,1,1.87-1.1l.31-.07.3-.07.3-.1a4.45,4.45,0,0,1,.45-.13c-.57,1.84-1.33,3.64-2.89,4.6a1.1,1.1,0,0,1-.47.1h0a1.62,1.62,0,0,1-1-.44,1.68,1.68,0,0,0-.16-.48l0-.05A.86.86,0,0,0,55.91,45.56Z"/><path class="cls-2" d="M29.05,46.75a5.61,5.61,0,0,0-1-1.24l-.26-.27h0A3.45,3.45,0,0,0,26.47,45c-.21,0-.42,0-.63-.06a16.76,16.76,0,0,0-2.42-.16,32.12,32.12,0,0,0-8,1.17,2,2,0,0,1-.86-1.41l.11-.26a2.63,2.63,0,0,1,.68-1.16l0,0v0a.5.5,0,0,0,0-.12.08.08,0,0,1,0,0h0s.06.08.12.08a.11.11,0,0,0,.09,0l0,0a.57.57,0,0,1,.21-.25.73.73,0,0,0,.26-.37l.06,0,.16-.07,0,0V42a.6.6,0,0,0,.3-.19.46.46,0,0,1,.17-.14v0a.19.19,0,0,0,.17.08h0a.33.33,0,0,0,.1-.4.44.44,0,0,0,.24-.16.28.28,0,0,1,.23-.13h.06l0,0a.48.48,0,0,0,.07-.15.24.24,0,0,1,.09-.14h0a.23.23,0,0,0,.14.05h0a3.41,3.41,0,0,0,.79-1,6.31,6.31,0,0,1,.44-.66l0,0,0,0c0-.09,0-.23.1-.37a.6.6,0,0,0,.11-.36.07.07,0,0,0,0,0,.16.16,0,0,0,0-.11.27.27,0,0,1,.06-.2v0a3.09,3.09,0,0,1,0-.35c-.07-.63-.15-1.41-.51-1.7,0,0,0-.08,0-.12a.18.18,0,0,1,0-.16l0,0,0,0A8.33,8.33,0,0,1,18,34v0a12.07,12.07,0,0,1-.84-.91,11.12,11.12,0,0,0-.93-1h0a1.93,1.93,0,0,1-.38-.23,1.69,1.69,0,0,0-.68-.35,1,1,0,0,0-.24,0,.83.83,0,0,0-.82.48.22.22,0,0,0,0,.18.52.52,0,0,1,0,.14l0,.3c0,.38-.08.78.26,1l0,0h0a.54.54,0,0,0,.2-.16l0,0a2.35,2.35,0,0,1,.25.6c0,.07.05.13.07.2v0a9,9,0,0,1,1.21,1.68l0,0h.12l0,0A3,3,0,0,1,17,37.48a11.4,11.4,0,0,1-1.54,2.37,4.43,4.43,0,0,0-1.16,1.36h0a.22.22,0,0,0-.11.05l0,0a3.88,3.88,0,0,1-.27.46,5.19,5.19,0,0,0-.58,1.18,2,2,0,0,0,0,.26,1,1,0,0,1,0,.25,1.17,1.17,0,0,1-.1.26A1.42,1.42,0,0,0,13,44a2.57,2.57,0,0,0,0,1,2.86,2.86,0,0,1,.06.48v0l.05.06.2.29a5.74,5.74,0,0,0-1.77-.24,13.4,13.4,0,0,0-1.78.14h0A5,5,0,0,0,7.48,47v0a2.5,2.5,0,0,0-.09.25,2.13,2.13,0,0,1-.24.55h0v0A2.28,2.28,0,0,0,7.19,49v0h0a.83.83,0,0,0,.69.22v-.07l0,.07H8.2a1,1,0,0,1,.24.08,1.07,1.07,0,0,0,.27.09l.27,0a4.63,4.63,0,0,0,1.8-.5,3,3,0,0,0,.3-.19c.17-.13.32-.25.5-.21h.08v-.08c0-.12.09-.14.23-.16l.17-.05.33-.16a2.89,2.89,0,0,1,.78-.31h0v0a1.23,1.23,0,0,1,.8-.4c.23.28.27.46.14.63l0,0v0a1.81,1.81,0,0,0,.13.35s.05.11.08.17h0a.11.11,0,0,0-.06.15h0a1.17,1.17,0,0,1,.06.48,1,1,0,0,0,.31.88,1.87,1.87,0,0,0,.77.16,4.59,4.59,0,0,0,1.23-.23l.14,0,0,0a2.88,2.88,0,0,1,.26-.35,1.53,1.53,0,0,0,.42-.72,2.19,2.19,0,0,0-.95-2.1l-.23-.21a5.7,5.7,0,0,1,2.22-.69,16,16,0,0,1,4.39-.52l.43,0a9.23,9.23,0,0,0,1,.2,3.63,3.63,0,0,1,1.58.48.42.42,0,0,0-.08.28c0,.06,0,.11,0,.18v0l0,0a.17.17,0,0,0,.19,0,.16.16,0,0,1,.1,0,3.93,3.93,0,0,1,.56.53,2,2,0,0,0,1.5.88h0a2.49,2.49,0,0,0,.46-.05h0C29,47.67,29.31,47.33,29.05,46.75ZM16.64,48.41a.39.39,0,0,1-.27.29l-.22-.32c-.29-.41-.58-.83-.91-1.22a1.26,1.26,0,0,1,.48.18v0s0,.09.07.11a.48.48,0,0,0,.2.07.51.51,0,0,1,.17.07A1,1,0,0,1,16.64,48.41Zm-3.71-1.86c-.62.19-1.21.41-1.79.63A20.37,20.37,0,0,1,8.57,48a1.06,1.06,0,0,1-.12-.2.41.41,0,0,1,.07-.15.76.76,0,0,0,.09-.18A2.42,2.42,0,0,0,9,47.14a1.75,1.75,0,0,1,.32-.29.93.93,0,0,0,.57-.23,1.59,1.59,0,0,1,.34-.18,3.25,3.25,0,0,1,1-.13A7.66,7.66,0,0,1,12.93,46.55Z"/><path class="cls-2" d="M35.36,43.64C35.12,43,34.18,43,33.79,43a3.56,3.56,0,0,0-.57,0c-.35.05-.74.16-1.12.25a6.27,6.27,0,0,1-1.54.29,1.25,1.25,0,0,1-.35,0s0-.06,0-.09a1.91,1.91,0,0,1,0-.75l.05-.06a.52.52,0,0,0,.12-.16.57.57,0,0,0,0-.22.49.49,0,0,1,0-.13,1.26,1.26,0,0,1,.1-.15l.13-.2.05-.08c.17-.31.34-.61.59-.7a.59.59,0,0,1,.2,0,.65.65,0,0,0,.33-.06.31.31,0,0,0,.14-.17.1.1,0,0,1,0,0h.13v-.13a1.42,1.42,0,0,1,.19-.77,1.63,1.63,0,0,0,.21-.6v-.08l-.07,0a.66.66,0,0,0-.5-.08,1.54,1.54,0,0,0-.4-.58l0,0h0a1,1,0,0,0-1,.34,2.22,2.22,0,0,1-.27-.19L30,38.36a.24.24,0,0,0-.14,0,.33.33,0,0,0-.22.13l0,0-.13-.08-.05.16a1.48,1.48,0,0,1-.15.31c-.05.11-.11.21-.16.33v0l0,0a1.93,1.93,0,0,1,.07.43,1.42,1.42,0,0,0,.1.45c-.49,1.09-1.05,2.65-.44,3.88v0l0,0a1.64,1.64,0,0,0,1.2.46h0a6.19,6.19,0,0,0,1.9-.46,7,7,0,0,1,1.2-.37h.53c.47,0,.68.1.72.34a2.08,2.08,0,0,1-.16.81,2.49,2.49,0,0,1-.32.53,2.72,2.72,0,0,0-.32.51,2,2,0,0,1-.14.25.92.92,0,0,0-.18.61l0,.16.16-.06a2.25,2.25,0,0,0,1-.91,3.63,3.63,0,0,1,.48-.57l0,0v-.05a1.84,1.84,0,0,1,.18-.56A1.27,1.27,0,0,0,35.36,43.64Z"/><path class="cls-3" d="M52.67,45.81c-1.13-.84-2.74-1-4.41-1.25a11.13,11.13,0,0,0-3.55.31,18.45,18.45,0,0,0-.34-2.48c-.28-.39-.51-.83-.78-1.22a1.27,1.27,0,0,1-.48-.41,4.17,4.17,0,0,0-1.25-.4,9.36,9.36,0,0,0-1.26.17c-.22-.14-.09-.37-.06-.68a6.14,6.14,0,0,1,.17-1.42c0-.14.16-.25.2-.38a.08.08,0,0,1,0-.1c0-.05.11-.05.13-.1s0-.19,0-.27.19-.24.23-.31,0-.09,0-.13.2-.08.27-.14.22-.33.37-.37h.24a.72.72,0,0,1,0-.37c-.2-.1-.44-.17-.54-.38-.19,0-.43.12-.64,0-1.44,1-1.71,3-1.73,5-.56.56-1.37.86-1.8,1.56,0,0-.06-.05-.13,0s0,.12,0,.24c-.52.21-.31.94,0,1.25a1.32,1.32,0,0,1,.55.34c.27,0,.48,0,.57.14a1.28,1.28,0,0,1,.68-.14,5.3,5.3,0,0,0,.54-.51c.42.2.49.74.78,1.06a5.13,5.13,0,0,0,1.46.84c.28.11.79.29,1,0a1,1,0,0,0-.51-.3c-.31-.5-.91-.9-.95-1.56-.31-.17-.3-.58-.44-.85a2,2,0,0,1,1.49-.34,1.91,1.91,0,0,1,.58.71,7,7,0,0,1-.1,3.87c-.25.7-.63,1.27-.85,2-.25.14-.33.46-.54.64-.16-1.48,0-2.46-.07-3.73a21.25,21.25,0,0,0-.64,4c0,.05.11.07.1.17s0,.15-.14.1c.2.28,0,.71.44.78a.77.77,0,0,1,.45-.1.86.86,0,0,1,.5-.55c0-.1.08-.15.11-.23s.12,0,.16-.07a14.09,14.09,0,0,0,.92-1.36A9.65,9.65,0,0,1,44,47.61a20.75,20.75,0,0,0,.57-2.41c.64,0,1.36-.2,2-.2.11,0,.21.1.3.1s.17-.09.24-.1a5.43,5.43,0,0,1,1,.07c.49.06,1.21.14,1.79.27a8.07,8.07,0,0,0,1,.34c.12.21.53.12.54.44-.12,0-.2.11-.17.3.52.27,1.36.1,1.43-.44C52.69,46,52.67,45.9,52.67,45.81Z"/><path class="cls-4" d="M72.92,51a.55.55,0,0,1-.16.37.52.52,0,0,1-.37.13c-.23,0-.23,0-.45,0h-.89l-.44,0c-.23,0-.23,0-.45,0l-.44,0c-.23,0-.23,0-.45,0a.52.52,0,0,1-.36-.16.49.49,0,0,1-.17-.36c0-.23,0-.23,0-.45v-.44c0-.23,0-.23,0-.45s0-.22,0-.45v-.89c0-.22,0-.22,0-.44a.46.46,0,0,1,.16-.35.48.48,0,0,1,.35-.18h.45c.22,0,.22,0,.44,0h2.23a.46.46,0,0,1,.35.16.49.49,0,0,1,.15.35c0,.22,0,.22,0,.44v.45c0,.22,0,.22,0,.44s0,.23,0,.45,0,.22,0,.44,0,.23,0,.45S72.92,50.73,72.92,51Zm-1-3.4c0,.07-.05.08,0,.13s-.07.1-.17.08a2.27,2.27,0,0,1,0,.35c.18.13.4.06.61.16s.08-.07.14-.09.11-.21,0-.28c.09-.06,0-.27-.1-.26a.15.15,0,0,0-.24-.07C72,47.52,72,47.56,71.9,47.56Zm-.66.38c0-.14,0-.21-.08-.26s-.25,0-.29.08,0,0,0,.07-.06.05-.11.06-.11.21-.07.32,0,0-.07,0a7.49,7.49,0,0,1-.18.87c-.26,0-.49-.1-.78-.11,0,0,0-.05-.07-.06s-.09,0-.14,0a.14.14,0,0,1-.14.08,1.11,1.11,0,0,0,0,.19.6.6,0,0,0,.36.22s0,0,0,0c.21,0,.4.22.69.19a3.11,3.11,0,0,0,.4,1.42,1.75,1.75,0,0,0,.24,0,.17.17,0,0,0,.18.1c0-.09,0-.1,0-.14s0-.06,0-.13-.17,0-.2-.1,0-.29-.07-.38a2.09,2.09,0,0,1,0-.25s0-.05,0-.07a1.53,1.53,0,0,1,0-.38.25.25,0,0,1,.21-.12c.11-.29.55-.24.74-.44a.21.21,0,0,1,0-.11s-.08,0-.07-.07a1.05,1.05,0,0,1-.8.11c.08-.46.19-.84.27-1.19A.06.06,0,0,1,71.24,47.94Zm-1.48,0a.34.34,0,0,0-.27.05l-.19,0c-.08.16-.4.21-.3.38s.14.08.17.22.26.06.31.17c.24,0,.43,0,.5-.17,0-.06,0-.13,0-.17a.66.66,0,0,1,0-.25c-.08,0-.07-.15-.2-.17C69.86,47.9,69.79,47.87,69.76,47.91Zm1.76,2c-.16,0-.27.18-.14.29s0,0,0,.09,0,0,.07,0,0,0,0,0a.3.3,0,0,1,.12.13s.09,0,.13,0,0,.08.07.09,0-.08.09-.07.09.08.15.11,0,0,.06-.06a.27.27,0,0,0,.4-.17c-.11,0,0-.13,0-.23s-.15,0-.14-.09h-.11c0-.08-.09-.06-.17,0s0,0,0-.06C71.87,49.84,71.68,49.94,71.52,49.89Zm-2.21.42c0,.11-.07.25-.2.29v.12c.1,0,.07.11.13.14s.11,0,.21,0,0,.06,0,.07.11,0,.2,0c0-.2.2-.25.1-.42s0,0,0-.09S69.48,50.29,69.31,50.31Z"/><path class="cls-5" d="M49.32,42.7h-.16a.41.41,0,0,1,0,.31.53.53,0,0,1-.48.2H47.5a.43.43,0,0,1-.42-.72l.58-1a.53.53,0,0,1,.42-.32c.15,0,.29.11.41.32l.22.38.06-.12.12-.2-.13-.22a.73.73,0,0,0-1.37,0l-.58,1a.81.81,0,0,0-.06.83.8.8,0,0,0,.75.35h1.16a.82.82,0,0,0,.75-.35.73.73,0,0,0,.07-.46Z"/><path class="cls-6" d="M48.76,41.77H47.27v1.74h1.61v-.92C48.62,42.44,48.56,42.13,48.76,41.77Z"/><path class="cls-7" d="M50.48,42.85H49.32a.73.73,0,0,1-.68-1.18l.58-1a.8.8,0,0,1,.68-.47.83.83,0,0,1,.69.47l.58,1a.82.82,0,0,1,.06.82A.79.79,0,0,1,50.48,42.85ZM49.9,40.5a.53.53,0,0,0-.42.32l-.58,1a.53.53,0,0,0-.06.52.52.52,0,0,0,.48.2h1.16a.51.51,0,0,0,.48-.2.53.53,0,0,0-.06-.52l-.58-1A.53.53,0,0,0,49.9,40.5Z"/><rect x="49.09" y="41.11" width="1.62" height="1.75"/></g></g></svg>