<svg xmlns="http://www.w3.org/2000/svg" viewBox="0 0 879.87 90"><defs><style>.cls-1{opacity:0.05;}.cls-2{fill:#fff;}</style></defs><g id="レイヤー_2" data-name="レイヤー 2"><g id="レイヤー_3" data-name="レイヤー 3"><g class="cls-1"><path class="cls-2" d="M.09,2.29c8.64.12,17.32.36,25.86.36.72,0,23.94-.14,31.9-.36l1.82,22.05L53.28,25C51.85,14.8,50.11,9.26,37.62,9.26c-5.18,0-6.5.72-7,3.25s-.51,10-.51,13.14V43c17.71.14,18.66-.91,18.89-10h6.15c-.25,4.6-.37,9.17-.37,13.74,0,4.3.12,7.91.37,13.2h-6c-.14-3.69-.58-7-2.65-8.63s-5.27-1.67-16.48-1.67V69.92c.1,11.52,1.07,12.38,9.87,12.61v5.41c-7.71-.1-14.09-.37-20.71-.37q-9.5,0-19.21.37V82.41c4.06,0,7.56-.27,8.51-4.57.61-2.53.71-12.72.71-16.11V25.36c0-16-.49-17.29-9.13-17.44Z"/><path class="cls-2" d="M86.85,2.41c6.26.24,12.53.38,18.81.38,6.44,0,12.61-.28,20.15-.38v5.8c-5-.14-7.77.1-8.49,5.25-.74,4.73-.74,18.92-.74,23.84,0,15.87,0,22.27,1.06,27.82,1.6,8.61,5.57,11.65,6.76,12.56a15.36,15.36,0,0,0,10.13,3.18A16,16,0,0,0,144.28,78c6.11-4.1,7.1-11.65,7.45-14.43.58-4.45.58-5.55.58-22,0-15.51,0-26.11-.93-29.6-1-3.32-3.15-3.5-8.21-3.83V2.41c6.27.1,10,.24,14.53.24,5.1,0,9.42-.14,13.76-.24V8.07c-6.52.14-8.54.59-8.91,7.83-.46,6.34-.46,13.2-.7,37.64-.27,10.21-.63,21.3-9.9,29.22-3.47,3-9.5,7.08-23.57,7.08-11.06,0-18-2.6-22.86-6.34-9.12-7-9.63-16.22-9.76-33.11V21.91c-.1-11.93-.59-13.6-8.91-13.84Z"/><path class="cls-2" d="M273.13,82.9c-11.28,4.34-18.75,7.1-31.51,7.1-28,0-43.19-18.52-43.19-43.95,0-21.71,12.49-45.43,45.35-45.43,9.63,0,16,1.58,30.56,5,.24,10.58.51,13.48,1.23,23.7l-6.63.46c-.59-4.31-2.75-21.61-21.66-21.61-8.66,0-14.2,3.21-17.92,7.78-6.87,8.35-8.3,20.24-8.3,29.71,0,18.66,6.82,36.6,26.15,36.6,18,0,21.36-14.93,23.54-24.42l6.61.51Z"/><path class="cls-2" d="M304.49,2.51c5.89.28,11.79.39,17.66.39,6.73,0,13.25-.25,20.84-.39v5.7c-8.56.19-8.56,1.54-8.8,15.25V41.4h29.48V25.74c-.25-16.36-.39-17.43-9-17.43V2.51c5.88.28,11.68.39,17.53.39,6.77,0,12.07-.11,20.95-.39v5.7c-4.82.19-7.47.37-8.42,4.42-.58,2.9-.58,14.47-.58,17.59V62c0,18.9,0,20.06,8.91,20.06v5.92c-6.54-.1-12.9-.37-19.4-.37-6.25,0-12.62.27-18.89.37v-5.8c8.66,0,8.66-2.37,8.79-16.69V47.88H334.19V65.19c.14,15.29.14,17,8.8,16.83v5.92c-5.78-.24-11.46-.37-17.08-.37-7.12,0-14.2.27-21.42.37v-5.8c3.83-.12,6.48-.36,7.82-3,.72-1.5,1.09-2.66,1.18-20.58v-29c-.09-20.72-.23-21.23-9-21.23Z"/><path class="cls-2" d="M421.07,2c6.31.25,12.53.47,18.81.47,6.74,0,13.47-.22,20.08-.47v6c-5,0-7.84.14-8.54,6-.23,2.52-.46,11.42-.46,14.45V60c0,20.85.23,22.13,9.14,22v6.06c-6.62-.24-13.25-.51-19.87-.51s-11.79.27-19.16.51V82c8.83,0,8.83-1.54,9.05-17.9V27.69c0-18.55-.14-19.77-9.05-19.77Z"/><path class="cls-2" d="M571.27,55.68c-7,.72-7,2.55-7,15,0,4,0,7,.12,13.24-8.8,2.71-18.54,5.73-30.45,5.73-32.72,0-45-24.42-45-45.12C489,21.4,503.9.86,533.28.86c11.28,0,22,2.87,30.77,5.31.14,9.61.25,12.4.84,23.54l-6.48.51c-.84-4.36-1.81-9-4.59-13.25-3.86-6.06-10.47-8.9-17.3-8.9a21.76,21.76,0,0,0-17.14,7.71c-7,8-8,21.52-8,28.71A75.66,75.66,0,0,0,513.29,62c4.09,16.83,15.27,20.71,21.63,20.71,9.27,0,9.27-6.06,9.27-10.35,0-15,0-16.37-8.76-16.5h-2.29V50h38.13Z"/><path class="cls-2" d="M648.67,0c1.71,6,2.41,8.4,4.94,16.11l17,51.86c4.42,13,4.79,14,11,14v5.82c-6.63-.14-12.16-.37-18.28-.37s-12.26.23-18.41.37v-5.7c2.64-.19,6.36-.36,6.36-4.3,0-1.56-1.19-5.52-3.09-11.39l-2.76-9.06H623.05c-2.79,7.32-5.9,16.25-5.9,19.84,0,4.91,4.32,4.79,6.38,4.72v5.89c-4.22-.14-8.4-.27-12.65-.27-4.92,0-9.39.13-14.67.27V82c6.37-.68,7.34-1.9,12.54-14.18l5.54-13.19,6.81-17.24,8-20.44,4.31-12ZM635.3,23.09l-9.87,27.44h18Z"/><path class="cls-2" d="M777.33,22.74c4.2-9.51,5-11.65,8.27-20.54,4.24.09,8.56.21,12.88.21,4,0,7.61-.12,12.88-.21V7.92c-7.45,0-7.82,1.59-7.82,17.82L804,63c.41,18.31.41,19.11,9.17,19.11v5.8c-5.87-.1-11.68-.37-17.43-.37-7.13,0-13.84.27-21.21.37v-5.8c9.55,0,9.79-.7,9.79-19.11l.23-35.57c-3.62,8.16-4.23,9.6-7.85,17.29L762.53,76.19c-2.42,5.37-2.77,6.11-5.16,11.75h-6.86c-2.19-5.53-2.56-6.5-4.7-11.57L730.29,40.78c-2.16-4.92-2.9-6.5-5.41-12.53l-.49,30.82c-.13,3.13-.13,6.12-.13,9.3,0,12.25.62,13.58,7.59,13.77v5.8c-4.2-.1-8.41-.24-12.54-.24-4.29,0-8.28.14-13.79.24v-5.8c8.39-.19,8.78-.8,9.59-19L716.8,29.1c.24-5.78.36-9.14.36-11.65,0-8.31-1.66-9.14-8.27-9.53V2.2c6.13.21,8.77.21,12.6.21S729,2.41,735,2.2c2.15,5.64,2.39,6,4.71,11.26l10.82,24.92c4.56,10.12,5.43,12,9.86,22.73,4.46-10.8,5.52-13.12,9.51-21.77Z"/><path class="cls-2" d="M840.9,2c6.27.25,12.55.47,18.78.47,6.73,0,13.48-.22,20.07-.47v6c-5.06,0-7.8.14-8.49,6-.28,2.52-.51,11.42-.51,14.45V60c0,20.85.23,22.13,9.12,22v6.06c-6.6-.24-13.17-.51-19.85-.51-6.49,0-11.76.27-19.12.51V82c8.79,0,8.79-1.54,9.05-17.9V27.69c0-18.55-.14-19.77-9.05-19.77Z"/></g></g></g></svg>