<svg xmlns="http://www.w3.org/2000/svg" viewBox="0 0 165.37 267.87"><defs><style>.cls-1{fill:#fff;}</style></defs><g id="レイヤー_2" data-name="レイヤー 2"><g id="レイヤー_1-2" data-name="レイヤー 1"><path class="cls-1" d="M0,32A25.86,25.86,0,0,1,2.69,19.68,28.65,28.65,0,0,1,9,11.11a28.7,28.7,0,0,1,13.6-7.27,29.57,29.57,0,0,1,12-.28A29.74,29.74,0,0,1,56.79,21.29,28.45,28.45,0,0,1,58.86,31a26.84,26.84,0,0,1-2.7,13.21,28.32,28.32,0,0,1-14.7,14.13,29.23,29.23,0,0,1-13.9,2.37,29.73,29.73,0,0,1-15.92-5.82A28.77,28.77,0,0,1,.94,39.35,23.51,23.51,0,0,1,0,32ZM17.09,19.73c-.06-.44-.1-.8-.17-1.16a16.87,16.87,0,0,0-1.93-5c-1.13-1.95-.21-3.53,2-3.6,3-.09,6.5,2.61,7.3,5.66.19.73.37,1.45.54,2.14l9.87-2.23a5.82,5.82,0,0,0-1.35-3.2A2.29,2.29,0,0,1,33,9.91a2,2,0,0,1,1.76-1.28c2.68-.34,7.23,1.3,7.78,5.18a4.39,4.39,0,0,0,.25,1,.9.9,0,0,0,.47.47c1.62.5,3.28.89,4.86,1.47a5,5,0,0,1,3,2.51,1.79,1.79,0,0,1-.66,2.51,6.45,6.45,0,0,1-3.3.88l-4,.25v7.66l1.57.31a12.18,12.18,0,0,1,6.41,3.27,2.64,2.64,0,0,1,.72,3,2.43,2.43,0,0,1-2.57,1.53c-1.45,0-2.91-.2-4.36-.3l-2-.12v.78c0,2.75-.07,5.5-.13,8.24,0,2.22-1.14,3.84-3,4.33-2.2.58-4.63,0-5.29-2.54a5.75,5.75,0,0,1-.21-1.48q.06-3.9.17-7.78c0-.53.07-1.06.1-1.6-.47,0-.84,0-1.21.07-3.11.32-6.23.67-9.34,1-.7.07-.89.44-1,1.08a29.87,29.87,0,0,1-2.76,8.41,5.37,5.37,0,0,1-5.68,2.84c-1.07-.13-2.11-.41-3.15-.62a3.06,3.06,0,0,0,.26.29c1,.76,2,1.57,3.11,2.26a26.82,26.82,0,0,0,16.86,4.22A25.31,25.31,0,0,0,43.2,54.17C51.51,49.06,56,41.71,56.05,31.85a23.37,23.37,0,0,0-3.13-12A26.57,26.57,0,0,0,39.4,7.93,27.09,27.09,0,0,0,24.53,6.4a26.38,26.38,0,0,0-13.83,7A24.75,24.75,0,0,0,2.77,30.66a24.27,24.27,0,0,0,1.16,8.9,26.24,26.24,0,0,0,4.31,8.08c.68.86,1.43,1.66,2.14,2.49a3.19,3.19,0,0,1,.85-3,20.24,20.24,0,0,0,3.1-5.27c.18-.44.34-.88.53-1.37l-1.3-.15A7.79,7.79,0,0,1,9.1,38.67a1.47,1.47,0,0,1-.42-2,2.93,2.93,0,0,1,.74-1,6.38,6.38,0,0,1,4.88-1.38,8.93,8.93,0,0,0,1.55,0c.44,0,.63-.26.66-.71.09-1.22.25-2.43.35-3.64s.13-2.38.18-3.48c-1.48-.24-2.9-.39-4.27-.72a5.59,5.59,0,0,1-3.43-2,1.82,1.82,0,0,1,0-2.19A3.7,3.7,0,0,1,13,20.18,12.73,12.73,0,0,0,17.09,19.73Zm17.85,4.21a2.25,2.25,0,0,0-.39,0c-3.06.56-6.13,1.12-9.18,1.73-.2,0-.45.39-.47.62-.13,1.25-.19,2.52-.28,3.78-.05.66-.1,1.32-.16,2.05,1-.21,2-.43,2.91-.57,2.28-.35,4.57-.65,6.85-1,.19,0,.49-.27.49-.43C34.81,28.1,34.87,26.06,34.94,23.94Z"/><path class="cls-1" d="M143.27,96.22c-.24,0-.48-.12-.64,0a2.88,2.88,0,0,0-1,.7c-1.23,1.56-2.45,3.15-3.63,4.76a2.74,2.74,0,0,0,.1,2.84,1.85,1.85,0,0,1,.38.66,4.11,4.11,0,0,0,2.21,3.11c.49.29,1.06.73,1.5-.13,0-.07.13-.1.21-.15,1.1-.64,2-1.58,3.16-2.15a3.73,3.73,0,0,0,1.26-1.21,21.11,21.11,0,0,1,1.75-2.57,7.23,7.23,0,0,0,1.49-2.29,15.27,15.27,0,0,0,.93-2.49c.35-1.43.48-2.46-1.31-3.14a2.3,2.3,0,0,0-.34.28c-1.17,1.52-2.32,3.06-3.52,4.55s-2.48,3-3.74,4.45c-.07.07-.24,0-.44.09l-.57.87a2,2,0,0,1-.62-2.85c.55-.88,1.18-1.72,1.77-2.58.28-.41.64-.73.59-1.34A3.82,3.82,0,0,1,143.27,96.22Z"/><path class="cls-1" d="M75.09,184.37a7.5,7.5,0,0,0,2.66,1.78c1.06.27,2.12.56,3.17.88a7.66,7.66,0,0,0,5.3-.05,29,29,0,0,0,3.4-1.89.59.59,0,0,0,.14-.56,4.69,4.69,0,0,0-.93-1.58,11.67,11.67,0,0,0-2.07-1.26,16,16,0,0,0-2.2-1.08c-.78-.27-1.62-.34-2.41-.57a.94.94,0,0,0-1,.29,3.84,3.84,0,0,1-.88.61c-.32.19-.71.27-1,.49-.68.51-1.3,1.09-2,1.59-.2.15-.57,0-.78.19C76,183.55,75.57,184,75.09,184.37Z"/><path class="cls-1" d="M85.57,221.77l-.09-.09-1.45.87c.12-.22.17-.33.16-.31-1.23.43-2.53,1-3.88,1.3-.66.15-1.53.6-2.11-.31,0,0-.11,0-.17,0-.34,0-1,.62-.92,1,.1.54-.26.58-.55.64.19.58.35,1.11.55,1.63.36.95.73,1.89,1.13,2.81.63,1.46,2.14,1.84,3.31,2.63.07,0,.2,0,.3,0l1.85-.1c.08-.12.45-.42.4-.64-.09-.54.2-.94.27-1.41s.12-1.16.18-1.74.48-1.42-.07-2.12a.56.56,0,0,1,0-.5c.3-.56-.11-.85-.41-1.16a.77.77,0,0,1,0-1.13Z"/><path class="cls-1" d="M142.81,62.16a3,3,0,0,0-1.71,1.65c-.69,1.74-1.39,3.48-2,5.25s-1.31,3.33-1.14,5.19c.05.44,0,.88.67.86s.93-.22,1-.81.16-1.14.28-1.7c.32-1.52.67-3,1-4.54.19-.91.39-1.83.49-2.75a6,6,0,0,0-.18-1.37l.17.11Z"/><path class="cls-1" d="M137.06,84.66l.77.19a2,2,0,0,0,.69.14,2.15,2.15,0,0,0,1.56-1.37A3.87,3.87,0,0,0,137.06,84.66Z"/><path class="cls-1" d="M101.5,131.16l.28-1.1,1.76,1.05.15-1c.73.5,1.37,1,2.08,1.41a22.22,22.22,0,0,0,2.5,1.22c1.26.53,2.68.81,3.55,2a24.48,24.48,0,0,1,1.56,2.6l-1,1.36a15.14,15.14,0,0,1-1.09,1.29c-.3.29-.62.51-.63,1,0,.14-.23.3-.38.39a37.79,37.79,0,0,1-7.32,3.27c-1.61.55-3.18,1.19-4.73,1.86-.31.13-.47.6-.71.91a33.3,33.3,0,0,0,8.91,7.42,30.4,30.4,0,0,0,6.91,3.22,12,12,0,0,1,4.86,2.52c.38.33,1,.39,1.37.71.7.58,1.31,1.27,2,1.91a2.13,2.13,0,0,1,.36,2.43,1.54,1.54,0,0,1-1.79,1.1c-.7-.07-1.39-.25-2.09-.38s-1.7-.34-2.55-.47a17.83,17.83,0,0,1-5.09-1.79,41,41,0,0,1-11.94-8.34c-1.1-1.11-2.25-2.18-3.3-3.19-.43.37-.8.68-1.15,1a2,2,0,0,0-.37.45A12.65,12.65,0,0,1,90,157.77c-.81.53-1.53,1.2-2.32,1.77A41,41,0,0,0,84.21,162a10.05,10.05,0,0,1-3,1.55,3.4,3.4,0,0,1,.3-.23,3.14,3.14,0,0,0,.39-.24c.42-.38,1.11-.46,1.28-1.14a.41.41,0,0,1,.31-.21c1,0,1.23-1.08,2-1.42.08,0,.1-.2,0-.42-.42.27-.88.51-1.27.82a13,13,0,0,1-4,2.35,1.25,1.25,0,0,1-1.39-.28l.67-.58-.07-.15-3.68,1.49,0,.15.75.16a3.3,3.3,0,0,1-1.94.33c-1.1,0-2.21.11-3.31.17h-.84c-.52,0-1.07-.34-1.51.28-.09.13-.51.09-.75,0a7.16,7.16,0,0,1-1-.41c-.26-.11-.63-.35-.78-.25-.87.55-1.5-.08-2-.48A3.07,3.07,0,0,1,63,161.26c0-.11,0-.22,0-.33a2.25,2.25,0,0,1,.81-1.93c.64-.71,1.2-1.49,1.82-2.22a6.6,6.6,0,0,1,.9-.93c1-.79,2-1.55,3-2.29a2.56,2.56,0,0,1,.81-.25l-.1.8.47.25a4.07,4.07,0,0,1-.77.51c-.5.17-1,.25-1.52.39a3.35,3.35,0,0,0-2.08,1.48,1.57,1.57,0,0,0-.26.72c-.06.69.34.93,1,.63l.47-.22.14.24a5.25,5.25,0,0,1,.8-.56c.18-.08.43,0,.65,0a1.35,1.35,0,0,0,.61-.05c.36-.2.59-.11.85.32l.26-.73.13,0c-.06.48-.11,1-.17,1.44a12.34,12.34,0,0,0-.2,1.59c0,.41.29.62.73.39.76-.4,1.57-.74,2.29-1.2a29,29,0,0,0,9.47-8.68l-.61.09c-1.38.18-2.75.44-4.13.52a7.06,7.06,0,0,1-2.91-.27,7.65,7.65,0,0,1-3.91-2.93,4.27,4.27,0,0,1-1-2.65A4.16,4.16,0,0,1,72,142.51a82.46,82.46,0,0,1,11.65-8.64,1.62,1.62,0,0,0,.22-.19,23.61,23.61,0,0,1-3,.59c-4.54.33-9.06.34-13.45-1.14a6.27,6.27,0,0,1-2.94-1.84c2.35-1.52,5.14-1.72,7.67-2.68,3.85-1.46,7.73-2.81,11.55-4.34a69.73,69.73,0,0,1,9.35-2.8,60.78,60.78,0,0,1,10.64-1.61c1.1-.08,2.19-.22,3.29-.25a9.58,9.58,0,0,1,4,1.08c.24.11.46.26.7.36a10.12,10.12,0,0,1,3.8,3.28,2.69,2.69,0,0,1,.62,2.63c-.35.33-.56.57-.81.76a.56.56,0,0,1-.48.09c-1.19-.52-2.5-.22-3.67-.53-1.47-.39-2.87,0-4.29-.06a9.93,9.93,0,0,0-2.91.55,13.53,13.53,0,0,1-1.57.08,6,6,0,0,0-.77.28,8.63,8.63,0,0,1-1,.14c-.1,0-.25,0-.31,0a1.75,1.75,0,0,1-1.39.44,5.07,5.07,0,0,0-1.78.77,11.56,11.56,0,0,1,1.63,6.1l.2,0,.77-1c.22,0,.42,0,.49-.06.23-.26.61-.53.2-.84l.76-.27.1.31c.19-.24.36-.43.5-.63a2.11,2.11,0,0,0,.21-2S101.75,131.16,101.5,131.16Zm-20.89,9.58.08.1.73-.64a17.94,17.94,0,0,1-1.49,1.74,2,2,0,0,0-.34.53,3.87,3.87,0,0,0-.17.69,7.42,7.42,0,0,0,1.35-.25q3.32-1.28,6.61-2.61a.87.87,0,0,0,.49-.45,20.87,20.87,0,0,0,.74-7.47L84,134.63l1,.15c0,.22,0,.46-.06.69s0,.47-.09.63c-.65.9-1.34,1.77-2,2.66l-.12-.1,1-1.52c-.7.89-1.88,1.33-2.25,2.52C81.4,140.08,80.92,140.38,80.61,140.74Zm-.88,21.32.1.2,1.61-.55-.09-.27Z"/><path class="cls-1" d="M77,209.19v.48l-.25.05c-.33-.76-.68-1.51-1-2.29s-.57-1.58-.85-2.37l.17-.06.51.82.2-.07a5.06,5.06,0,0,0-.22-.85c-.26-.56-.55-1.12-.84-1.67,0-.09-.18-.22-.26-.21a.37.37,0,0,0-.27.22,2.23,2.23,0,0,0-.06.58c-.31-.95-.89-.81-1.55-.71a9.19,9.19,0,0,1-3.19.35c-.55-.11-1.17.26-1.77.37a2,2,0,0,1-1.11,0c-.76-.4-1.45-.92-2.24-1.44l.78-.5-.15-.48.17.07a5.39,5.39,0,0,1,.64-1.37c.35-.38.41-1,1.07-1.16.16,0,.28-.26.43-.39,1.67-1.49,3.3-3,5-4.47,1.46-1.2,3-2.34,4.55-3.39a17.73,17.73,0,0,1,5.75-2.66,8.64,8.64,0,0,1,4.23.55,8.14,8.14,0,0,1,3.51,1.95c.22.2.47.38.68.55l2-6.69-1.81,1.52c-.73-.07-1.24.69-2.06,1a2.22,2.22,0,0,1,.16-.32c1.41-1.54,2.81-3.08,4.24-4.61.54-.57,1.19-1,1.69-1.64,1.43-1.72,2.81-3.49,4.21-5.24l-.14-.22-6.18,2.21a3.3,3.3,0,0,1,0,.9c-.17.74-.5.84-1.43.81a9.44,9.44,0,0,1-3.91-1.3c-.85-.42-1.67-.92-2.7-1.5-1.31,1-2.83,2.1-4.22,3.31-1.06.94-2.18,1.78-3.28,2.65s-2.27,1-3,2.06a.86.86,0,0,1-.54.34c-1.42.09-2.13,1.17-3,2.06a30,30,0,0,1-2.43,2.35l1-1.34-.08-.07-2,1.64-.09-.08,1.1-1.53-.13-.12-2.48,2.42-.06,0,.21-.39-3.33,1.57v-.32l-3.72,2-.14-.1a3.13,3.13,0,0,1,.3-.54c.46-.52,1-1,1.42-1.54,2.72-3.21,5.44-6.42,8.13-9.65a99.7,99.7,0,0,1,9.85-10.39c.87-.79,1.71-1.61,2.56-2.43.22-.21.4-.44.77-.27.1,0,.29,0,.42-.1.42-.24.82-.5,1.14-.69.42.18.73.32,1,.44a7.25,7.25,0,0,1,3.38,2.59c.9,1.32.41,2.67-.54,3.87-.14.17-.3.31-.51.54.76.26,1.47.48,2.17.73a6.09,6.09,0,0,0,2,.69c.64,0,1.24-.61,1.89-.87a97,97,0,0,1,11.92-4.46,18.29,18.29,0,0,1,4.18-.95c2.36-.05,4.76.13,6.67,1.91a1.39,1.39,0,0,1,.4,1.57,1.29,1.29,0,0,1-1.18.88,2.48,2.48,0,0,1-1.87-.18c-.39-.23-1.07,0-1.62.06a9.8,9.8,0,0,0-1.33.1,4.11,4.11,0,0,0-2.46,1.38c-.34.4-.61,1-1.29,1-.14,0-.4.33-.38.48.11.75-.44,1.11-.9,1.63,1.06-.14,2-.22,3-.41a5.57,5.57,0,0,1,3.67.61,25.85,25.85,0,0,1,3.88,2.49,2.59,2.59,0,0,1,1,2.19c-.09,1.69-.28,3.38-.36,5.07s-.11,3.66-.17,5.49-.14,3.4-.24,5.1a2,2,0,0,1-2,1.76c-.53,0-1-.12-1.56-.12a3.4,3.4,0,0,0-2.57,1.32,9.74,9.74,0,0,1-1.76,1.47c-.89.66-1.8,1.29-2.85,2,.84.31,1.52.57,2.2.81a35.52,35.52,0,0,1,10.09,5.29,6.79,6.79,0,0,1,1.62,2.08c.16.29-.13.84-.22,1.28l-.17-.13a4.2,4.2,0,0,1-1.11.07,11.46,11.46,0,0,1-1.47-.48,13.46,13.46,0,0,0-2.11-.64c-.42-.06-.48-.28-.58-.55a.46.46,0,0,1,0-.26c.49-1.28-.23-1.91-1.26-2.42-1.54-.76-3-1.64-4.6-2.34a8.54,8.54,0,0,0-4.06-.74,2.66,2.66,0,0,0-1,.42c-1.15.71-2.27,1.47-3.41,2.18-.59.36-1.21.68-1.82,1a4.68,4.68,0,0,1-.47.12l1-.86-.1-.18L95,211.24l.38-.74a9,9,0,0,0-1,.23,2,2,0,0,1-1.38.12,5.75,5.75,0,0,0-1.68.12,4,4,0,0,1-1.69-.06c-.59-.27-1.12,0-1.72-.15l.4-.43-1.35.29-.11-.12c2.3-1.86,4.79-3.5,6.75-5.74l-.09-.15c-1.11.45-2.23.87-3.33,1.35-1.34.59-2.65,1.22-4,1.85a3.32,3.32,0,0,1-2.63.3,1.6,1.6,0,0,1-1.12-1.84,2.91,2.91,0,0,1,1-1.08c.31-.25.76-.33,1.07-.57,1.82-1.41,3.61-2.83,5.4-4.26a.81.81,0,0,0,.33-.5c0-1.06-.1-2.11-.16-3.32l-3.38,2.53a2.11,2.11,0,0,1-.35.26L82,201.26a1.09,1.09,0,0,0-.67,1.21c0,.73-.05,1.48-.05,2.21,0,1.35-.83,2.42-1.16,3.65,0,0,0,.12-.09.13-1,.25-.86,1.12-1.1,1.81a7.77,7.77,0,0,1-.57,1.1L77,209.19a1.91,1.91,0,0,0-.06-.59c-.19-.54-.41-1.07-.63-1.6a3.48,3.48,0,0,0-.22-.43s-.21,0-.21.08a.93.93,0,0,0,0,.47C76.24,207.81,76.62,208.5,77,209.19Zm29.63-19.27a6.6,6.6,0,0,1-1.95.15c-1.85-.41-3.79,0-5.59-.72a.74.74,0,0,0-.32,0l-3,.62.8-1.55L93.84,187a3.32,3.32,0,0,1-.26,2.64,4.6,4.6,0,0,0-.7,2.88,46.67,46.67,0,0,1-.16,5,2.89,2.89,0,0,0,0,.43l1.64-1.83c-.08-.1-.11-.17-.16-.2-.56-.3-.56-.92-.82-1.39-.39-.71,0-1,.45-1.31.08-.07.1-.2.18-.27a1.81,1.81,0,0,1,.46-.32c.33-.14.7-.21,1-.38a5.51,5.51,0,0,1,3.13-.93,10.39,10.39,0,0,1,2.67.81,10.72,10.72,0,0,1,3.68,2.53c.29.29.55.29.78-.07A5.61,5.61,0,0,0,106.63,189.92Zm-6.2-7.22-.1-.1,3.18-3.11-.09-.12-3.53,1.24.07-.41a2.89,2.89,0,0,0-.37.23c-1.25,1.26-2.92,1.78-4.48,2.48a1.3,1.3,0,0,1-.62.07,1.44,1.44,0,0,0-1.35.75c.67.55.25,1.37.53,2.07.26-.12.52-.22.76-.34a28.5,28.5,0,0,1,4-2.08,5,5,0,0,1,2.79-.13,9.41,9.41,0,0,1,4.29,2.11,11.07,11.07,0,0,0,1.24.83c.11-1.42.2-2.66.3-3.9a.63.63,0,0,0-.53-.74c-.64-.2-1.24-.52-1.87-.73a2.16,2.16,0,0,0-2.18.14C101.8,181.52,101.12,182.12,100.43,182.7Zm-7.18,18.43c.09,0,.2,0,.29-.08l5.33-2.14c1.76-.71,3.7-1,5.17-2.39.08-.07.2-.07.3-.12l1-.48-.14-.24c-.18.11-.37.33-.55.32-1.11,0-2,.63-2.93,1a2.49,2.49,0,0,1-.92.3c-1.21,0-2.42-.18-3.63-.2a1.72,1.72,0,0,0-1.75.74,4.7,4.7,0,0,1-.84.78l.13-.73C92.52,199.43,92.66,199.43,93.25,201.13Zm-9.06-8.6-.14-.18-4.69,2.73,2,2.32C82.37,195.88,83.73,194.47,84.19,192.53ZM87,203.89l4.08-1.62c-.29-.65-.53-1.17-1.41-.92a6.29,6.29,0,0,0-2.51,1.79C87,203.26,87,203.56,87,203.89Zm9.2-23-.18-.18-1.7,1.81.09.09ZM83.74,199.92l-.09-.16-2.24,1,.12.25Z"/><path class="cls-1" d="M87.81,77.12l.89.52c1.49.88,3,1.76,4.49,2.66a2.3,2.3,0,0,1,1.23,2.06c0,.88.07.93-1,1a13.4,13.4,0,0,0-4,.52,3.57,3.57,0,0,1-1.36-.1c-.67-.09-.87,0-1.2.68,1.15.74,2.32,1.45,3.43,2.23a3.18,3.18,0,0,1,1.59,2c0,.23.29.42.47.66a3.44,3.44,0,0,1-2.74,1c-1.39,0-3-.17-4.09,1.3l-.28-1.1-1.12,1,.17.2.94-.86c0,.84-.85,1.35-.77,2.34l.76-.89,0,.83,9-2.69c-.28-.86-.59-1.73-.83-2.61-.08-.31-.13-.71.37-.87a.83.83,0,0,0,.43-.5A12.15,12.15,0,0,0,95,82a24.19,24.19,0,0,1,.21-2.53c.06-.71.08-1.43.14-2.15s-.54-1.43.24-2.11c.19-.18,0-.82,0-1.33l.92.23.15-.41c.43-.14.89.68,1.2-.11l2,.75a16.11,16.11,0,0,1,5.59,3.77,3.49,3.49,0,0,1,.57,3.84,8.8,8.8,0,0,0-1,3.33c0,1-.52,1.74-.53,2.7,1.72-.24,3.44-.21,5-1.15a4.42,4.42,0,0,1,3.49-.28c1.17.3,2.32.7,3.47,1.08s1.3,1.28,1.59,2.18c0,.08-.17.32-.27.33-.55.06-.76.3-.41,1-.7-.12-1.19-.22-1.68-.28a3.08,3.08,0,0,0-.8,0c-.71.11-1.41.3-2.12.35-2.51.2-5,.36-7.54.53h-.06c-.38,0-.93-.06-1.09.15a9.81,9.81,0,0,0-.87,1.83,19.41,19.41,0,0,0,2.42-.13,11.32,11.32,0,0,1,3.34.25,6.81,6.81,0,0,1,3.32,1.21c2.46,1.84,4.83,3.79,5.29,7.13a3.38,3.38,0,0,1,0,.78,24.61,24.61,0,0,1-.38,3,8,8,0,0,1-.87,1.8,18.44,18.44,0,0,1-5.64,6.66,13.43,13.43,0,0,1-6.1,2,6,6,0,0,1-1.79.11c-.73-.1-1.42-.43-2.14-.6-2.06-.49-3.9-1.57-5.92-2.18A5.68,5.68,0,0,1,93,112.5a9.05,9.05,0,0,0-2.24-1,3.1,3.1,0,0,0-.62-.13l0-.22c.38,0,.77.11,1.15.13.1,0,.2-.1.3-.16-.06-.09-.1-.25-.18-.28-.92-.33-1.84-.66-2.77-1a2.13,2.13,0,0,1-.71-.28,5.47,5.47,0,0,1,1-.08c.58,0,.58.07.82-.32-.57-.24-1.14-.49-1.72-.71a1.1,1.1,0,0,0-1.17.65,1.5,1.5,0,0,1-2,.88c-.22-.09-.46-.13-.68-.22-1.74-.69-2.23-.57-3.55.75a26.06,26.06,0,0,1-2.77,2.49,5.1,5.1,0,0,1-2,.85,5.93,5.93,0,0,1-3.15.23,5.34,5.34,0,0,1-1.61-.65,16.31,16.31,0,0,1-3-2.64,3.59,3.59,0,0,1-.73-3.46,8,8,0,0,1,3.16-4c.61-.43,1.11-.11,1.68.29,1,.69.77,1.89,1.39,2.7a.4.4,0,0,1,.07.18c.17,1.09.16,1.08,1.27,1.09a16.69,16.69,0,0,0,5.24-1c.59-.18.56-.68.38-1.12a7.5,7.5,0,0,0-.94-1.82,12.69,12.69,0,0,1-1.31-2.87,18.36,18.36,0,0,1-.89-10,8.94,8.94,0,0,0,0-1q.21-3.06.41-6.13c.09-1.39.19-2.78.27-4.17a3,3,0,0,0-.15-.7,3.72,3.72,0,0,1,.68-3.3,29.16,29.16,0,0,1,6.52-6.07,9.55,9.55,0,0,0,1.24-1,3,3,0,0,1,3-.75,10.71,10.71,0,0,1,4.9,2.64,1.48,1.48,0,0,1,.4,1.86,2.47,2.47,0,0,0-.1.9,2.57,2.57,0,0,1-2.07,2.58c-.92.21-1.8.56-2.7.85Zm7.36,31.64A5.82,5.82,0,0,0,99,109a6.43,6.43,0,0,0,2.86-1.16c.69-.53,1.68-.45,2.43-1.07,1.06-.88,2.4-1.46,3.39-2.4a18.6,18.6,0,0,0,2.87-3.61c.64-1,.33-1.65-.5-2.53a6.17,6.17,0,0,0-3.2-1.72,9.12,9.12,0,0,1-1.12-.36,1.86,1.86,0,0,0-2.11.5,1.64,1.64,0,0,1-.55.34c-1.81.7-3.65,1.35-5.45,2.09-2,.81-4,1.7-5.94,2.55a1.7,1.7,0,0,1-.79.23,5.71,5.71,0,0,0-3.7,1.18c.72,1.05.72,1.05,1.83.76l.64-.16c.87-.26,1.74-.52,2.62-.76l2.45-.68c.09-.44.06-.87.21-1A11.11,11.11,0,0,1,97.47,100a3.17,3.17,0,0,1,1.92.16c1.87.8,3.58,1.83,4.41,3.81a11.36,11.36,0,0,1-4.3,2.91,3.42,3.42,0,0,1-1,.25A4.64,4.64,0,0,0,95.17,108.76ZM101,94.09a5.9,5.9,0,0,1-.61-.32,3.23,3.23,0,0,0-2.72-.46c-1.51.3-3,.46-4.54.77a6.27,6.27,0,0,0-2.11.8,3.15,3.15,0,0,1-1.83.5,6.06,6.06,0,0,0-1.88.34,11.23,11.23,0,0,0-1.89.89c-.78.43-1.75.55-2.31,1.37a.61.61,0,0,1-.58.1c-.47-.19-.81-.12-1,.29l-.73-.26.31,2.5.4-.19.23.59C87.83,98,94,95.28,101,94.09ZM81.61,79.35c-.25.51-.45.86-.61,1.22-.07.17,0,.43-.1.56A2,2,0,0,0,80.58,83a6.24,6.24,0,0,1,.16,1.29c0,1.94,0,3.88.05,5.82,0,1,.11,1.94.17,2.94,1.74-.93,2.74-2.46,3.89-3.83a.53.53,0,0,0,0-.49A18.23,18.23,0,0,0,83,86.86a3.18,3.18,0,0,1-.9-3.33,6.8,6.8,0,0,1,2-3.53c.14-.14.32-.39.29-.53-.17-.64-.41-1.26-.64-1.88,0,0-.16,0-.25,0a3.89,3.89,0,0,0-2.5.22Zm11.57,26.43c-1.32.12-2.64.22-4,.39a1.17,1.17,0,0,0-.72.48,5.85,5.85,0,0,0-.46,1.12l3.72.37A.37.37,0,0,0,92,108C92.42,107.22,92.82,106.46,93.18,105.78Z"/><path class="cls-1" d="M105.64,27.11c-.56-.2-1.07-.42-1.61-.57-.87-.25-1.61.24-2.38.49-.61.21-1.22.44-1.82.68l-5.38,2.07,0,.19c.8.31,1.6.61,2.39.93a12.56,12.56,0,0,1,2,.9,14.37,14.37,0,0,1,4.29,3.58,3,3,0,0,1,0,2.62,4.69,4.69,0,0,1-.95.59c1.65.75,3.11,1.37,4.54,2.06a11.37,11.37,0,0,1,2.39,1.45,6.69,6.69,0,0,1,1.14,1.75c.09.16.1.38.2.54.83,1.29,0,1.93-1.38,2.1,0,0-.06,0-.12.06,1.46.63,2.94,1.17,4.33,1.9A16.47,16.47,0,0,1,117.15,51a8.29,8.29,0,0,1,2.73,6.78c-.09,1.49-.68,2-2.16,2-.5,0-1,.11-1.5.09-1.17,0-2.35-.09-3.53-.15-.65,0-1.31-.09-2-.1s-1.52,0-2.27,0l0,.18,1-.87-2.26-.29.33-.23,0-.12a3.94,3.94,0,0,1-1.19.27,3.87,3.87,0,0,1-1.13-.48c.46-.35.35-.67-.08-1,.58-.31,1.13-.59.93-1.38l-.66-.1,1-1.07-.72.12a3.14,3.14,0,0,1,.41-.57c.76-.62,1.54-1.21,2.3-1.82a1,1,0,0,0,.37-.44c.31-.85.12-1-.79-1.21a9.31,9.31,0,0,1-1.64-.76c-1.32-.59-2.63-1.21-4-1.72a8.08,8.08,0,0,0-2.08-.41,1.73,1.73,0,0,0-1,.27c-.69.41-1.34.89-2,1.35a7.89,7.89,0,0,1,.79,1,3.2,3.2,0,0,1,.37,1c.53,2.58.2,5.23.61,7.83A17.23,17.23,0,0,1,99,61.3a6.66,6.66,0,0,1-.78,3.1,1.11,1.11,0,0,1-.37.43c-.65.43-1.32.83-2,1.25a8.19,8.19,0,0,1-3.57.89c-.64-.59-1.74,0-2.27-.9a.39.39,0,0,0-.25-.07c-1.31.06-2.46-.63-3.72-.86a9.67,9.67,0,0,1-2.16-.84c-.83-.37-1.62-.81-2.42-1.21l.16-.07c-.4-.13-.83-.26-1.26-.41s-1-.36-1.42-.55l0-.15.51.09c-1.06-.46-2.09-.89-2.08-2.3l1.17.29.08-.22c-.57-.23-1.15-.44-1.7-.71-.14-.06-.2-.3-.37-.59l8.25,2a2.25,2.25,0,0,0,1.8-.25,9,9,0,0,1,2-.76c1.6-.43,2-1.69,2.18-3.07.16-1.58.17-3.17.25-4.88-.92.26-1.71.5-2.49.71-1.28.35-2.56.66-3.83,1a17.05,17.05,0,0,0-2.5.93,6.57,6.57,0,0,1-2.62.57,8.1,8.1,0,0,0-1.12.3c-.85.17-1.4-.46-2-.82-.73.34-1.33,1.15-1.18,1.69a12.92,12.92,0,0,1,.29,2.63,3.86,3.86,0,0,1-.15.79l.77.37,0,.1-.91-.33a3.66,3.66,0,0,1-3.48,1.29,5.58,5.58,0,0,1-2.89-1.56,18.45,18.45,0,0,1-1.92-2.5c-.71-1-.47-2.08-1-3,.59.06,1.11.13,1.63.13.09,0,.17-.27.28-.45A4.55,4.55,0,0,0,71.26,53l3.07-1.2c-.15-.61-.26-1.13-.43-1.64s.14-.92.46-1.27c2-2.26,4.6-3.9,6.87-5.88,2-1.78,4-3.6,6-5.41a5.84,5.84,0,0,0,.57-.72,5.52,5.52,0,0,0-3,.08,1.87,1.87,0,0,0-.93.91,6.7,6.7,0,0,0-.5,1.61c-.17.65-.84.87-1.71.49a13.19,13.19,0,0,1-2.71-1.86c-.5-.39-.9-.92-1.38-1.34a5,5,0,0,1-1.24-2.53c-.16-.54-.4-1.05-.52-1.59a25.86,25.86,0,0,1-.39-2.62c0-.18.22-.38.48-.53v1.32l.39-.05,0,.37,1.21-.66-.17-.08c.26-.66.49-1.33.8-2,.11-.22.42-.35.66-.49.65-.4,1.31-.8,2-1.16.33-.19.71-.3,1-.52l-.59.06,0-.13c.55-.2,1.1-.41,1.66-.57.24-.08.27-.1.24-.4a.5.5,0,0,1,.18-.42c1.23-.82,2.44-1.67,3.71-2.41,1.43-.83,2.89-1.61,4.39-2.3,1.3-.6,2.67-1,4-1.56.4-.16.78-.39,1.17-.59l0-.17a2.28,2.28,0,0,0,.57.27,2.22,2.22,0,0,0,1.17,0,1.11,1.11,0,0,1,1.36.09c1.49,1,3,1.87,4.48,2.89a6.61,6.61,0,0,1,2.72,4,1.66,1.66,0,0,1-.82,1.74C105.8,26.87,105.71,27,105.64,27.11Zm-15.56,19,3.16-1.79.09.19-1.06.67a15.16,15.16,0,0,0,3.26-.61c1.51-.47,3-1.09,4.49-1.58a1.6,1.6,0,0,0,1.17-1.16l-1-.68c-.93-.67-1.86-1.13-2.78,0,0,0-.11,0-.19,0l.2-.29-.11-.15-1.67,1.2.15-.63a8.35,8.35,0,0,0-1,.55,6.16,6.16,0,0,0-1,.87c-.42.47-1.07.44-1.53.73A4.84,4.84,0,0,0,90.08,46.06ZM77.78,30.65l-.15.13c.35.61-.65.48-.56,1.15a6.44,6.44,0,0,0,.92-.7C78.05,31.16,77.86,30.85,77.78,30.65Z"/><path class="cls-1" d="M104.09,225.2l-.47.53a14.86,14.86,0,0,1,1.75.77,13,13,0,0,1,2.27,1.59c1.22,1.18,1.15,2-.11,3.36-1,1-2.16,1.73-3.07,2.82a7.76,7.76,0,0,1-1.81,1.22,5.18,5.18,0,0,0-.87.56,5.88,5.88,0,0,1-2,1.11c-.53.2-1.05.44-1.57.68-.07,0-.12.11-.17.17a4,4,0,0,0,0,2.21,4.53,4.53,0,0,0,1.3.56q2.68.63,5.38,1.17a12.18,12.18,0,0,1,3,1.11,15.63,15.63,0,0,0,2.71.89,12.05,12.05,0,0,1,1.92.52q2.16,1,4.25,2.15a13,13,0,0,1,4,3.81,3.78,3.78,0,0,1,.7,3c-.09.54,0,1.11-.17,1.65a1.63,1.63,0,0,1-1.11,1.14c-2,.93-4.07.39-6.12.33-.85,0-1.7,0-2.56,0l-.43,0,.6-.34h-5.2l.41-.26a14.24,14.24,0,0,1-3.08-.24c-1.61-.47-2.92.38-4.37.63l1,.16-.3.34.51.44c-.64.34-1.24.69-1.87,1a2.69,2.69,0,0,1-.89.21c-.45.05-.61.14-.76.71a4,4,0,0,1-1.43,2.56c-.17.11-.21.39-.36.54a6.16,6.16,0,0,1-3,1.5c-.17.05-.46,0-.54-.06-.41-.55-1-.46-1.52-.42a4.69,4.69,0,0,1-3-.88,20.7,20.7,0,0,0-3-1.62,19,19,0,0,1-7.76-6.62c-.57-.8-.56-.79-1.4-.3s-1.8,1-2.72,1.52a5.54,5.54,0,0,1-1.07.3l.46-.49c-1,.12-1.91.16-2.77.34a1,1,0,0,0-.7,1.1l-.45.1.3-.85-.61.65-2-.71a4.24,4.24,0,0,0-.54-.6c-.47-.35-1.1-.57-1.41-1a4.24,4.24,0,0,1-.57-1.78c0-.16.4-.58.62-.58,1.29,0,1.94-.9,2.66-1.73s1.23-1.46,1.85-2.21a.9.9,0,0,1-.25,1.26,2.55,2.55,0,0,0-1.16,1.72c1.18,1,2.14.9,2.38,0,.22.1.46.28.68.26.56,0,1.11-.24,1.66-.27.18,0,.55-.42.64.12l.28,0-.07-.31c.56-.43,1.13-.86,1.67-1.31a1.64,1.64,0,0,0,.27-.49l-.58-.09-.32,0a13.68,13.68,0,0,0,1.23-.77c.69-.56,1.33-1.19,2-1.76.45-.36,1-.66,1.45-1a26.55,26.55,0,0,0,4-3.87,2.72,2.72,0,0,0,.22-.37,5.6,5.6,0,0,0-.75-.06,19,19,0,0,1-5.86-.65,5.74,5.74,0,0,1-3.65-2.46,6.25,6.25,0,0,1-.54-1.34c.53-.11,1-.18,1.44-.29,2.31-.56,4.61-1.11,6.91-1.68a36.15,36.15,0,0,0,9.26-3.67.9.9,0,0,0,.51-.88q.14-4.8.35-9.6a10.9,10.9,0,0,1,.26-1.88,3.14,3.14,0,0,0-.35-2.57s0-.11,0-.13l1.19-.13.08-.46c.48-.13.86-.26,1.26-.33a2.39,2.39,0,0,1,1,0,20.72,20.72,0,0,1,2.57.81,6.53,6.53,0,0,1,1.39.86,3.19,3.19,0,0,1,1.14,2.19,13.94,13.94,0,0,1,.25,4.13c-.09.8.14.92.93,1.12a2.9,2.9,0,0,1,1.16.79c.57.58,1,.63,1.6.07.43-.42,1.06-.79,1.24-1.3s.76-.94,1-1.48l-.13-.05,2.46-3.07-2.93-1.45a9.61,9.61,0,0,1,4.35-.51,3.68,3.68,0,0,1,.63.17c.71.24,1.42.49,2.13.76a3.48,3.48,0,0,1,.71.38c.4.25.8.51,1.18.79,1.35,1,2.56,2.06,2.7,3.85a1.27,1.27,0,0,1-.51.83,3.16,3.16,0,0,1-2.45.58,8.28,8.28,0,0,0-4,.72l.72-.79-.1-.18L105.41,226l1-1.08-.67.16,1-.83c-.82.33-1.78.25-2.46.9l1.39-1.88,0-.08-1.35.92,0-.46-1.84,1.64C103.15,226,103.58,225.29,104.09,225.2ZM88.41,244.31a23,23,0,0,1-2.06,1.82c-.92.63-1.93,1.11-2.89,1.68-.57.34-1.12.73-1.68,1.09,0,0,0,.06,0,.1l.54-.07c-1.2,1.41-2,1.89-2.36,1.44l-3.28,2.28,0,.17c.3.07.8-.45.88.21h-.47a1.91,1.91,0,0,0,.24.42,13.85,13.85,0,0,0,1.28,1.26,12.54,12.54,0,0,0,1.62,1.06c.65.37,1.34.68,2,1,.44.24.86.51,1.3.75a2,2,0,0,0,.34.12c.2-.51.5-.1.7-.05.71.16,1.4.42,2.11.58a1.36,1.36,0,0,0,.73-.14,4.2,4.2,0,0,0,1.77-1.57,3.42,3.42,0,0,0,.93-2.57c-.16-1.42-.43-2.83-.6-4.25-.22-1.77-.38-3.55-.57-5.32Zm9-2.28A55.42,55.42,0,0,0,98,255.37l7.58-1.87,0-.15-2.24-.13a15,15,0,0,0,1.7-.68,6,6,0,0,0,1.28-1c.83-.77,1.67-1.54,2.43-2.37.26-.3.57-.81.06-1.2a6.29,6.29,0,0,0-1.19-.67,19.82,19.82,0,0,1-5.51-3.43,4.07,4.07,0,0,0-1.26-1C99.74,242.58,98.63,242.35,97.42,242Zm-18.89,9-.17-.23c-.58.31-1.19.6-1.75,1-.29.18-.51.45,0,.73Zm-3.09,1.71-.17-.2c-.66.54-1.33,1.08-2,1.65,0,0,0,.25.09.46l2-1.26-.05-.1-.66.22,0-.1Zm7.91-5.5-.08-.12-1.42.89.16.25Z"/><path class="cls-1" d="M137.87,33.3a5.16,5.16,0,0,1,2.21,4.09c.06.87.13,1.73.2,2.6l.17,0,.37-.63a18.4,18.4,0,0,1,6.7-7.19,11.38,11.38,0,0,1,11.59-.44,8,8,0,0,1,3.06,2.87,1.89,1.89,0,0,1,.37,1.22c-.35,1.28.14,2.5.09,3.75,0,1.45-.1,2.91-.19,4.36a21.51,21.51,0,0,1-.28,2.4c-.25,1.37-.52,2.74-.84,4.1a3.16,3.16,0,0,1-.61,1.28c-.76.88-1.58,1.72-2.42,2.52a2.65,2.65,0,0,1-3-.22,1.34,1.34,0,0,0-1.32-.27,22.88,22.88,0,0,1-5.7.76,1.9,1.9,0,0,1-1.61-.54.66.66,0,0,0-.4-.19c-.75-.06-1.51-.07-2.25-.17a1.29,1.29,0,0,1-.88-.42,5.17,5.17,0,0,0-2.31-1.68,5.43,5.43,0,0,1-2.48-2.3,11.09,11.09,0,0,1-.84-6.56c.25-2.18.28-4.38.35-6.58,0-.64-.19-1.28-.23-1.93A3,3,0,0,1,137.87,33.3Zm10.24.15a6.62,6.62,0,0,0,1.89.65c1,0,1.09.85,1.5,1.41a2.15,2.15,0,0,1,.32.78c.05.24,0,.51,0,.77a4.39,4.39,0,0,0,.2.87c0,.13.2.23.31.34a6.32,6.32,0,0,0,1.15,1.16,6.35,6.35,0,0,1,3,3.15.83.83,0,0,1-.69,1.19,8.08,8.08,0,0,0-1.44.59,2.17,2.17,0,0,0-.3.23c-.65.42-1.3.82-1.93,1.26a.65.65,0,0,0-.19.47c-.07.9-.11,1.81-.16,2.78.49-.05.94-.14,1.39-.14a3.78,3.78,0,0,1,1.39.19c.4.17.64.09.81-.21a12.51,12.51,0,0,0,1-2.07,22,22,0,0,0,.55-2.8,14.9,14.9,0,0,0,.13-1.64,16.4,16.4,0,0,1,.07-2,15.38,15.38,0,0,0-.13-6,2,2,0,0,0-.82-1.29,9.54,9.54,0,0,0-2.51-.56,10.9,10.9,0,0,0-1.81,0A8.93,8.93,0,0,0,148.11,33.45Zm-1,.67A8.92,8.92,0,0,0,146,35c-1.21,1.4-2.41,2.8-3.58,4.24-.45.56-1.12.92-1.12,1.88a14.65,14.65,0,0,1-.69,3,1.84,1.84,0,0,0,.09.76c.09.4.23.79.31,1.19a6.33,6.33,0,0,0,.41,2.15c.92,1.4,2,2.68,3.08,4,0,.06.19,0,.25,0L145,51l-.1,0-.29.42-.07,0,.11-.55-.52-.38a5.4,5.4,0,0,1,.5-.86c.83-.95,1.58-1.91,1.12-3.26l-1.94-.84a.73.73,0,0,1-.24-1.26c.71-.66,1.46-1.27,2.14-2a2.09,2.09,0,0,0,.64-1.08c.15-1.13.16-2.29.27-3.43S146.91,35.43,147.07,34.12Z"/><path class="cls-1" d="M148.68,72.07l-.76-.73a16.47,16.47,0,0,0-1.11,1.41,8.84,8.84,0,0,1-3,2.64c-.55.36-1,.84-1.56,1.22a18,18,0,0,1-1.73,1.09c-.35.2-.75.32-1.12.5s-1.14.42-1.41-.08a4.19,4.19,0,0,1-.13-1.75c0-.07.19-.15.31-.2,1.07-.51,2.14-1,3.21-1.53a15,15,0,0,0,2.13-1.14,19.12,19.12,0,0,0,2.63-2.21,9.77,9.77,0,0,0,1.15-1.82,2.9,2.9,0,0,0-1.83.91,2,2,0,0,1-2.39.43,1.77,1.77,0,0,1-.62-.34,4,4,0,0,1-.79-1.24c0-.15.48-.49.75-.72a20.77,20.77,0,0,1,6.52-3.78,4.06,4.06,0,0,1,4,.29.71.71,0,0,0,1,0,14,14,0,0,0,1.78-1.42,1.61,1.61,0,0,0-.49,0,5,5,0,0,1-3.31-.06,5.42,5.42,0,0,0-3,.09,3.92,3.92,0,0,1-3.24-.67c-.19-.13-.45-.15-.57-.33a1.87,1.87,0,0,0-.32-.36c-.28-.17-.59-.3-.88-.44a3.07,3.07,0,0,1,1-.2c1.14.19,2.13-.35,3.17-.57.26-.05.51-.47.63-.77a8.46,8.46,0,0,0,.42-1.57.94.94,0,0,0-.19-.58.93.93,0,0,1,.57-1.47,2.28,2.28,0,0,1,1.27,0,7.42,7.42,0,0,1,3.58,2.62,2.32,2.32,0,0,1,.22.49,15.52,15.52,0,0,1,3.12.57c2.14.87,4.28,1.83,5.21,4.22a2.93,2.93,0,0,1,.22.82c.07.79-.37,1.16-1.16,1-.62-.1-1.25-.17-1.87-.24a11,11,0,0,0-1.39-.12c-.51,0-1,.08-1.51.12l-2.93.23c0-.1,0,0,0,0,.2.77,0,1-.75,1.36a4.37,4.37,0,0,0-.75.57c-.87.61-1.75,1.2-2.6,1.79.54.7,1.11,1.45,1.71,2.18.28.33.85.12,1.15-.28a2.94,2.94,0,0,1,1-.87,19,19,0,0,1,4.66-1.65,1.49,1.49,0,0,1,1.36.38,3.78,3.78,0,0,1,1.15,2.2c.13.6-.25.9-.82,1.08a8.76,8.76,0,0,0-1.7.86,4.1,4.1,0,0,0-.53.45c.78.44,1.54.82,2.26,1.28a3.86,3.86,0,0,1,1.19,1,20.38,20.38,0,0,1,1.52,2.84,1.21,1.21,0,0,1-.15,1.12,2,2,0,0,1-1.28.08,5.78,5.78,0,0,0-1.9-.3c-1.12.1-1.75.9-2.65,1.27a1.45,1.45,0,0,1-.56.15l1.83-1.32-.08-.09-.94.43-.05-.1.74-.65-.52,0,.38-.4,0-.08-.85.49-.08-.1,1.8-1.72c-1.54-.38-2.85-1.17-4.47-.88a10.06,10.06,0,0,1,.27,4.19,3.66,3.66,0,0,1-1.74,3.2,1.61,1.61,0,0,1-.95.12c-.7-.1-1.38-.27-2.12-.42l.21-.4-.94.11c-.34,0-.57,0-.73-.4-.08-.24-.59-.41-.93-.45a2.14,2.14,0,0,1-1.43-1.09,1,1,0,0,0-1.6-.31,16.74,16.74,0,0,1-2,1.15,2.84,2.84,0,0,1-2.14-.12.25.25,0,0,1-.1-.21.68.68,0,0,1,.25-.28l2.93-1.82a1,1,0,0,0,.19-.17c-1.08-1-1.08-1-2.26-.23a10.13,10.13,0,0,1-.89.55.93.93,0,0,1-.47,0,4,4,0,0,1-.48-.07c0-.5.12-.74.69-1a2.62,2.62,0,0,0,1.45-1.89c0-.09,0-.21.1-.26,1.81-1.4,3.65-2.77,5.42-4.21A10.63,10.63,0,0,0,148.36,72Zm-2.57,5.65-2.35,1.58.12.19.67-.34-.43.5c.27.4.52.35.85.13,1.73-1.2,3.48-2.36,5.21-3.55a1.38,1.38,0,0,0,.29-.3l-.11-.15c-.89.3-1.86.34-2.57,1.14a3.29,3.29,0,0,1-1.13.54Zm4.68,1.3-.14-.21-4.08,2.53C147.89,81.83,150.11,80.53,150.79,79Z"/><path class="cls-1" d="M159.7,8.28H160l-.25-.45c.12,0,.19,0,.22,0,.68.57,1.34,1.18,2,1.72.25.18.67.12.93.29A12,12,0,0,1,164.36,11c.27.25.46.57.71.83a.72.72,0,0,1-.23,1.29,1.06,1.06,0,0,0-.45.44,1.55,1.55,0,0,1-1.41.85,20.77,20.77,0,0,0-3.06.77c-.9.24-1.8.42-2.68.7-1.75.57-1.84.61-2,2.45-.21,2-.26,4.07-.35,6.1a3,3,0,0,0,.22,1.06c.3.87-.19,2.74-.89,3a1.22,1.22,0,0,1-.95-.1,3.8,3.8,0,0,1-1.65-2.61,1.25,1.25,0,0,1,.4-.24c.69-.14.77-.67.79-1.22.1-2.15.18-4.31.27-6.47,0-.16,0-.33,0-.68-1,.33-1.92.65-2.85.93a11.86,11.86,0,0,1-2,.48c-.75.08-1.28.22-1.54,1.08a8.33,8.33,0,0,1-1.16,1.86c-.18.28-.38.54-.53.83-.68,1.29-1.86,1.49-3.15,1.48a.55.55,0,0,1-.61-.53c-.14-.94-.27-1.87-.42-2.93l-3.25.77a3.5,3.5,0,0,1-1.13.2,1.57,1.57,0,0,1-1.29-2.06,2.46,2.46,0,0,1,1.06-1.13,30.67,30.67,0,0,0,5.17-4,2.39,2.39,0,0,0,.66-1.06c.32-1,.55-2.09.83-3.18-1.22-.68-2.6-1.22-3-2.95.78-.06,1.51-.1,2.24-.17a19.34,19.34,0,0,0,2-.24,1.2,1.2,0,0,0,.61-.47c.84-1.13,1.62-2.32,2.51-3.41a1.07,1.07,0,0,1,1.52-.09c.7.54,1.35,1.15,2.11,1.81.67-.3,1.48-.67,2.28-1,.27-.13.4-.32.15-.61s-.57-.76-.95-1.26c.76.22,1-.33,1.36-.66s.78-.61,1.14-.88a5,5,0,0,1,1.41,3.48c0,.34.45.73.78,1a14.13,14.13,0,0,1,2.22,2.72c.09.12,0,.4,0,.6l-1.54-.59,2,2.27c-.84.08-1.54-.62-1.94-1.61-.19-.46-.38-.42-.7-.17s-.61.45-.9.69a.57.57,0,0,0-.18.33c-.13,1.28-.25,2.57-.36,3.85-.07.76-.12,1.53-.19,2.52l6.78-2.54.06-.27-2.31-1.84.93-.57.59.28Zm-12.6,8.6c.13,0,.2.07.25.05,1.84-.43,3.69-.87,5.52-1.33.14,0,.3-.34.32-.53.1-1.35.17-2.7.26-4,0-.47.09-.94.14-1.5-.93.25-1.76.51-2.61.68a2.71,2.71,0,0,0-2.25,1.93C148.22,13.73,147.65,15.29,147.1,16.88ZM138,18.42l.14.2c.88-.15,1.75-.28,2.61-.47a.73.73,0,0,0,.47-.42c.1-.8.14-1.62.2-2.43l-.22-.12-1.15,1.32c-.44.51-.59,1.33-1.49,1.4C138.4,17.92,138.23,18.24,138,18.42Zm4.1-.77c.45-.67.75-1.38,0-2.16Z"/><path class="cls-1" d="M145.29,93c.83-.54,1.55-1,2.31-1.49a21.07,21.07,0,0,1,2.43-1.2,5.52,5.52,0,0,1,3.9,0,11.27,11.27,0,0,1,5.82,4.34,8.41,8.41,0,0,1,.84,8.16,5,5,0,0,1-.72,1.07c-.56.72-1.12,1.45-1.72,2.14a3.39,3.39,0,0,1-1.89,1.37,4.71,4.71,0,0,0-1.64,1.09,7.44,7.44,0,0,1-2.84,1.58,1.76,1.76,0,0,0-.41.1c-.72.39-1.42.79-2.18,1.12l2.43-2.94-.1-.12-.35.25a.86.86,0,0,1-.42.23,50.1,50.1,0,0,0,3-4.16,12.87,12.87,0,0,0,1.83-3.76c.21-1.08.71-2.1.91-3.18a10.58,10.58,0,0,0,.1-2.92,2.41,2.41,0,0,0-.87-1.35,6.15,6.15,0,0,0-1.95-1.09,29.74,29.74,0,0,0-3.12-.64.75.75,0,0,0-.26,0c-1.21.39-2.52.52-3.52,1.46C146.23,93.67,146.17,93.62,145.29,93Zm10.31,9.53,1-2.47-.19-.06A2.9,2.9,0,0,0,155.6,102.5Z"/><path class="cls-1" d="M143.27,96.22a3.82,3.82,0,0,0-.44,1.37c0,.61-.31.93-.59,1.34-.59.86-1.22,1.7-1.77,2.58a2,2,0,0,0,.62,2.85l.57-.87c.2,0,.37,0,.44-.09,1.26-1.48,2.53-2.94,3.74-4.45s2.35-3,3.52-4.55a2.3,2.3,0,0,1,.34-.28c1.79.68,1.66,1.71,1.31,3.14a15.27,15.27,0,0,1-.93,2.49,7.23,7.23,0,0,1-1.49,2.29,21.11,21.11,0,0,0-1.75,2.57,3.73,3.73,0,0,1-1.26,1.21c-1.16.57-2.06,1.51-3.16,2.15-.08,0-.18.08-.21.15-.44.86-1,.42-1.5.13a4.11,4.11,0,0,1-2.21-3.11,1.85,1.85,0,0,0-.38-.66,2.74,2.74,0,0,1-.1-2.84c1.18-1.61,2.4-3.2,3.63-4.76a2.88,2.88,0,0,1,1-.7C142.79,96.1,143,96.2,143.27,96.22Z"/><path class="cls-1" d="M75.09,184.37c.48-.4.91-.82,1.39-1.16.21-.14.58,0,.78-.19.69-.5,1.31-1.08,2-1.59.3-.22.69-.3,1-.49a3.84,3.84,0,0,0,.88-.61.94.94,0,0,1,1-.29c.79.23,1.63.3,2.41.57a16,16,0,0,1,2.2,1.08A11.67,11.67,0,0,1,88.83,183a4.69,4.69,0,0,1,.93,1.58.59.59,0,0,1-.14.56,29,29,0,0,1-3.4,1.89,7.66,7.66,0,0,1-5.3.05c-1-.32-2.11-.61-3.17-.88A7.5,7.5,0,0,1,75.09,184.37Z"/><path class="cls-1" d="M85.57,221.77,84,223.12a.77.77,0,0,0,0,1.13c.3.31.71.6.41,1.16a.56.56,0,0,0,0,.5c.55.7.15,1.41.07,2.12s-.09,1.16-.18,1.74-.36.87-.27,1.41c.05.22-.32.52-.4.64l-1.85.1c-.1,0-.23.06-.3,0-1.17-.79-2.68-1.17-3.31-2.63-.4-.92-.77-1.86-1.13-2.81-.2-.52-.36-1.05-.55-1.63.29-.06.65-.1.55-.64-.07-.37.58-1,.92-1,.06,0,.15,0,.17,0,.58.91,1.45.46,2.11.31,1.35-.33,2.65-.87,3.88-1.3,0,0,0,.09-.16.31l1.45-.87Z"/><path class="cls-1" d="M142.81,62.16l-1.4,1.89-.17-.11a6,6,0,0,1,.18,1.37c-.1.92-.3,1.84-.49,2.75-.32,1.51-.67,3-1,4.54-.12.56-.2,1.13-.28,1.7s-.43.8-1,.81-.62-.42-.67-.86c-.17-1.86.59-3.51,1.14-5.19s1.29-3.51,2-5.25A3,3,0,0,1,142.81,62.16Z"/><path class="cls-1" d="M115.85,259.79a4,4,0,1,1-4.06,4.06A4,4,0,0,1,115.85,259.79Zm0,7.5a3.4,3.4,0,0,0,3.45-3.43,3.52,3.52,0,0,0-3.45-3.55,3.6,3.6,0,0,0-3.52,3.51A3.5,3.5,0,0,0,115.84,267.29Z"/><path class="cls-1" d="M137.06,84.66a3.87,3.87,0,0,1,3-1A2.15,2.15,0,0,1,138.52,85a2,2,0,0,1-.69-.14Z"/><path class="cls-1" d="M79.44,255.07l0,0-1.83-1.62,0,0Z"/><path class="cls-1" d="M144.53,79.17l1.58-1.45.55-.26Z"/><path class="cls-1" d="M79.44,255.07l-1.74-1.71,0,0L79.48,255Z"/><path class="cls-1" d="M117.44,263.86l.46,2.46h-.82c0-.47-.1-.94-.14-1.41a.62.62,0,0,0-.66-.66c-.54,0-1.08,0-1.69,0v2.09h-.71v-4.95a27.38,27.38,0,0,1,2.87,0,1.32,1.32,0,0,1,.82,2.09c-.1.14-.22.26-.33.39Zm-2.83-.27c.63,0,1.19,0,1.75,0a.69.69,0,0,0,.68-.79c0-.46-.21-.76-.68-.78s-1.15,0-1.75,0Z"/></g></g></svg>